<svg width="123" height="34" viewBox="0 0 123 34" fill="none" xmlns="http://www.w3.org/2000/svg">
<path d="M44.704 18.08H49.216V24H47.568L47.392 22.784C47.0187 23.2747 46.544 23.6267 45.968 23.84C45.392 24.0427 44.7573 24.144 44.064 24.144C42.976 24.144 42.032 23.92 41.232 23.472C40.432 23.024 39.8133 22.384 39.376 21.552C38.9387 20.7093 38.72 19.7067 38.72 18.544C38.72 17.3387 38.9653 16.2827 39.456 15.376C39.9573 14.4693 40.6613 13.76 41.568 13.248C42.4853 12.736 43.5573 12.48 44.784 12.48C45.7867 12.48 46.6453 12.6667 47.36 13.04C48.0747 13.4133 48.6667 13.9733 49.136 14.72L47.536 15.888C47.248 15.376 46.8587 14.9973 46.368 14.752C45.8773 14.5067 45.3387 14.384 44.752 14.384C43.9627 14.384 43.2747 14.56 42.688 14.912C42.112 15.2533 41.664 15.7333 41.344 16.352C41.0347 16.9707 40.88 17.6907 40.88 18.512C40.88 19.7067 41.1787 20.6347 41.776 21.296C42.384 21.9467 43.216 22.272 44.272 22.272C44.7733 22.272 45.248 22.1813 45.696 22C46.144 21.8187 46.5067 21.552 46.784 21.2C47.072 20.8373 47.216 20.3947 47.216 19.872V19.776H44.704V18.08ZM54.9273 24.144C54.0526 24.144 53.2953 23.984 52.6553 23.664C52.0259 23.3333 51.5406 22.864 51.1993 22.256C50.8579 21.648 50.6873 20.9227 50.6873 20.08C50.6873 19.2373 50.8633 18.496 51.2153 17.856C51.5673 17.2053 52.0419 16.6987 52.6393 16.336C53.2473 15.9733 53.9353 15.792 54.7033 15.792C55.9513 15.792 56.8686 16.2187 57.4553 17.072C58.0526 17.9147 58.2606 19.0827 58.0793 20.576H52.6713C52.7139 21.1413 52.9433 21.5947 53.3593 21.936C53.7753 22.2773 54.3459 22.448 55.0713 22.448C55.4126 22.448 55.7539 22.3733 56.0953 22.224C56.4473 22.0747 56.7459 21.8453 56.9913 21.536L58.1273 22.688C57.7646 23.1467 57.3219 23.504 56.7993 23.76C56.2873 24.016 55.6633 24.144 54.9273 24.144ZM54.7352 17.264C54.1913 17.264 53.7433 17.4347 53.3913 17.776C53.0393 18.1173 52.8153 18.576 52.7193 19.152H56.3993C56.4206 18.4907 56.2766 18.0107 55.9673 17.712C55.6579 17.4133 55.2473 17.264 54.7352 17.264ZM62.5908 24.144C61.4814 24.144 60.6334 23.936 60.0468 23.52C59.4601 23.0933 59.1188 22.5013 59.0228 21.744L60.6708 21.344C60.7348 21.7493 60.9214 22.064 61.2308 22.288C61.5401 22.5013 61.9828 22.608 62.5588 22.608C63.0281 22.608 63.3801 22.5333 63.6148 22.384C63.8601 22.2347 63.9828 22.032 63.9828 21.776C63.9828 21.52 63.8494 21.3227 63.5828 21.184C63.3268 21.0453 62.9268 20.9227 62.3828 20.816C61.7748 20.6987 61.2521 20.5493 60.8148 20.368C60.3881 20.1867 60.0574 19.9413 59.8228 19.632C59.5988 19.312 59.4868 18.896 59.4868 18.384C59.4868 17.8933 59.6254 17.456 59.9028 17.072C60.1801 16.6773 60.5588 16.368 61.0388 16.144C61.5294 15.9093 62.0894 15.792 62.7188 15.792C63.5614 15.792 64.2494 15.9893 64.7828 16.384C65.3268 16.7787 65.6521 17.2853 65.7588 17.904L64.1428 18.336C64.0681 18.0267 63.9081 17.7867 63.6628 17.616C63.4174 17.4347 63.0868 17.344 62.6708 17.344C62.2548 17.344 61.9348 17.4293 61.7108 17.6C61.4974 17.7707 61.3908 17.984 61.3908 18.24C61.3908 18.496 61.5134 18.6987 61.7588 18.848C62.0148 18.9867 62.4468 19.12 63.0548 19.248C63.6201 19.3653 64.1108 19.5147 64.5268 19.696C64.9534 19.8667 65.2894 20.1067 65.5348 20.416C65.7801 20.7147 65.9028 21.12 65.9028 21.632C65.9028 22.1333 65.7588 22.576 65.4708 22.96C65.1934 23.3333 64.8041 23.6267 64.3028 23.84C63.8014 24.0427 63.2308 24.144 62.5908 24.144ZM70.5734 24.144C69.6027 24.144 68.8454 23.8773 68.3014 23.344C67.768 22.8107 67.5067 22.112 67.5174 21.248L67.5814 17.552H66.2054V15.92H67.6134L67.6294 14.256H69.5814L69.5494 15.92H72.1894V17.552H69.5334L69.4854 21.04C69.4747 21.4773 69.5814 21.824 69.8054 22.08C70.04 22.3253 70.3867 22.448 70.8454 22.448C71.0907 22.448 71.32 22.416 71.5334 22.352C71.7467 22.288 71.9707 22.1707 72.2054 22L72.7814 23.504C72.536 23.7173 72.2214 23.8773 71.8374 23.984C71.4534 24.0907 71.032 24.144 70.5734 24.144ZM76.1316 24.144C75.2356 24.144 74.5583 23.84 74.0996 23.232C73.6516 22.624 73.433 21.7813 73.4436 20.704L73.4756 15.92H75.4276L75.3956 20.528C75.385 21.0827 75.481 21.52 75.6836 21.84C75.8863 22.16 76.2063 22.32 76.6436 22.32C76.985 22.32 77.2996 22.2187 77.5876 22.016C77.8863 21.8133 78.1423 21.472 78.3556 20.992C78.569 20.5013 78.7343 19.8453 78.8516 19.024C78.9796 18.192 79.0436 17.1573 79.0436 15.92H80.9316V24H78.9636L79.0756 22.16C78.7556 22.8107 78.3396 23.3067 77.8276 23.648C77.3263 23.9787 76.761 24.144 76.1316 24.144ZM88.1928 17.808C87.9794 17.7333 87.7074 17.696 87.3768 17.696C86.8008 17.696 86.3368 17.9093 85.9848 18.336C85.6328 18.752 85.3714 19.424 85.2008 20.352C85.0408 21.2693 84.9608 22.4853 84.9608 24H83.0247V18.784L83.0088 15.92H84.9608L84.8648 18.176C85.1421 17.312 85.5261 16.6987 86.0168 16.336C86.5181 15.9733 87.0514 15.792 87.6168 15.792C87.7874 15.792 87.9474 15.8027 88.0968 15.824C88.2461 15.8453 88.3848 15.8773 88.5128 15.92L88.1928 17.808ZM93.021 24.144C92.1463 24.144 91.389 23.984 90.749 23.664C90.1197 23.3333 89.6343 22.864 89.293 22.256C88.9517 21.648 88.781 20.9227 88.781 20.08C88.781 19.2373 88.957 18.496 89.309 17.856C89.661 17.2053 90.1357 16.6987 90.733 16.336C91.341 15.9733 92.029 15.792 92.797 15.792C94.045 15.792 94.9623 16.2187 95.549 17.072C96.1463 17.9147 96.3543 19.0827 96.173 20.576H90.765C90.8077 21.1413 91.037 21.5947 91.453 21.936C91.869 22.2773 92.4397 22.448 93.165 22.448C93.5063 22.448 93.8477 22.3733 94.189 22.224C94.541 22.0747 94.8397 21.8453 95.085 21.536L96.221 22.688C95.8583 23.1467 95.4157 23.504 94.893 23.76C94.381 24.016 93.757 24.144 93.021 24.144ZM92.829 17.264C92.285 17.264 91.837 17.4347 91.485 17.776C91.133 18.1173 90.909 18.576 90.813 19.152H94.493C94.5143 18.4907 94.3703 18.0107 94.061 17.712C93.7517 17.4133 93.341 17.264 92.829 17.264ZM100.013 24H97.9805V12.64H101.981C103.453 12.64 104.578 12.9387 105.357 13.536C106.135 14.1333 106.525 14.9973 106.525 16.128C106.525 17.2693 106.103 18.1653 105.26 18.816C104.418 19.456 103.191 19.776 101.581 19.776H100.013V24ZM101.901 14.336H100.013V18.064H101.693C102.653 18.064 103.351 17.9093 103.789 17.6C104.226 17.2907 104.445 16.8107 104.445 16.16C104.445 15.5093 104.237 15.0453 103.821 14.768C103.415 14.48 102.775 14.336 101.901 14.336ZM113.021 17.808C112.808 17.7333 112.536 17.696 112.205 17.696C111.629 17.696 111.165 17.9093 110.813 18.336C110.461 18.752 110.2 19.424 110.029 20.352C109.869 21.2693 109.789 22.4853 109.789 24H107.853V18.784L107.837 15.92H109.789L109.693 18.176C109.97 17.312 110.354 16.6987 110.845 16.336C111.346 15.9733 111.88 15.792 112.445 15.792C112.616 15.792 112.776 15.8027 112.925 15.824C113.074 15.8453 113.213 15.8773 113.341 15.92L113.021 17.808ZM117.785 15.792C118.99 15.792 119.934 16.1547 120.617 16.88C121.31 17.5947 121.657 18.5653 121.657 19.792C121.657 20.624 121.481 21.3707 121.129 22.032C120.788 22.6827 120.302 23.2 119.673 23.584C119.044 23.9573 118.313 24.144 117.481 24.144C116.276 24.144 115.326 23.7867 114.633 23.072C113.95 22.3573 113.609 21.3813 113.609 20.144C113.609 19.312 113.78 18.5707 114.121 17.92C114.473 17.2587 114.958 16.7413 115.577 16.368C116.206 15.984 116.942 15.792 117.785 15.792ZM117.545 22.432C118.174 22.432 118.681 22.192 119.065 21.712C119.449 21.232 119.641 20.592 119.641 19.792C119.641 19.0667 119.47 18.5067 119.129 18.112C118.798 17.7173 118.34 17.52 117.753 17.52C117.102 17.52 116.585 17.76 116.201 18.24C115.817 18.72 115.625 19.3547 115.625 20.144C115.625 20.8693 115.79 21.4347 116.121 21.84C116.462 22.2347 116.937 22.432 117.545 22.432Z" fill="#3359C6"/>
<g clip-path="url(#clip0_35_485)">
<path d="M15.9366 14.1339L12.4835 8.15287C12.1319 7.54281 12.037 6.81814 12.2195 6.13811C12.402 5.45808 12.8471 4.87834 13.4569 4.52629C14.0666 4.17424 14.7912 4.07869 15.4714 4.26064C16.1516 4.44259 16.7317 4.88715 17.0842 5.49662L22.3967 14.6981" stroke="#3359C6" stroke-width="1.8" stroke-linecap="round" stroke-linejoin="round"/>
<path d="M11.8671 17.7102L6.82023 8.96872C6.64547 8.66661 6.53196 8.33303 6.48619 7.98703C6.44042 7.64104 6.46328 7.28941 6.55347 6.95226C6.64366 6.6151 6.79941 6.29902 7.01181 6.02209C7.22422 5.74516 7.48912 5.5128 7.79137 5.33829C8.09362 5.16379 8.4273 5.05056 8.77334 5.00507C9.11937 4.95959 9.47098 4.98275 9.80806 5.07322C10.1451 5.16369 10.4611 5.3197 10.7378 5.53234C11.0146 5.74498 11.2467 6.01007 11.421 6.31247L15.9366 14.1338" stroke="#3359C6" stroke-width="1.8" stroke-linecap="round" stroke-linejoin="round"/>
<path d="M20.4522 21.9551C19.7478 20.7349 19.5569 19.2848 19.9215 17.9239C20.2862 16.5629 21.1765 15.4026 22.3967 14.6981L21.0686 12.3977C20.8939 12.0956 20.7804 11.762 20.7346 11.416C20.6888 11.07 20.7117 10.7184 20.8019 10.3812C20.8921 10.0441 21.0478 9.72801 21.2602 9.45107C21.4726 9.17414 21.7375 8.94178 22.0398 8.76728C22.342 8.59277 22.6757 8.47954 23.0217 8.43406C23.3678 8.38858 23.7194 8.41173 24.0564 8.5022C24.3935 8.59268 24.7095 8.74869 24.9862 8.96133C25.263 9.17396 25.4951 9.43906 25.6694 9.74146L28.3256 14.3422C29.0236 15.5506 29.4768 16.8846 29.6592 18.2682C29.8415 19.6517 29.7496 21.0576 29.3886 22.4056C29.0275 23.7536 28.4045 25.0172 27.555 26.1244C26.7056 27.2316 25.6463 28.1605 24.4378 28.8583C23.2293 29.556 21.8951 30.0089 20.5115 30.1909C19.128 30.373 17.7221 30.2808 16.3742 29.9194C15.0263 29.5581 13.7628 28.9348 12.6558 28.0851C11.5488 27.2354 10.6201 26.1759 9.92259 24.9672L4.87571 16.2258C4.52418 15.6157 4.42923 14.891 4.61175 14.211C4.79427 13.531 5.23931 12.9512 5.84908 12.5992C6.45884 12.2471 7.18344 12.1516 7.86362 12.3335C8.5438 12.5155 9.12391 12.96 9.47647 13.5695L11.8671 17.7102M10.7703 31.8754C8.96944 30.6258 7.46826 28.9923 6.375 27.0925M23.375 4.11719C24.5873 4.11703 25.7782 4.43614 26.828 5.04243C27.8777 5.64871 28.7493 6.52078 29.355 7.57089" stroke="#3359C6" stroke-width="1.8" stroke-linecap="round" stroke-linejoin="round"/>
</g>
<defs>
<clipPath id="clip0_35_485">
<rect width="34" height="34" fill="white"/>
</clipPath>
</defs>
</svg>
