<svg width="256" height="265" viewBox="0 0 256 265" fill="none" xmlns="http://www.w3.org/2000/svg">
<g clip-path="url(#clip0_35_382)">
<path d="M40.9338 88.2774L95.1196 79.6919L113.726 227.695L59.0898 232.697C31.9327 236.088 5.85327 206.507 0.839653 166.627C-4.17397 126.746 13.7768 91.6682 40.9338 88.2774Z" fill="url(#paint0_linear_35_382)"/>
<path d="M54.0308 159.985C48.893 119.115 67.2893 83.1661 95.1202 79.6912C122.951 76.2164 149.678 106.531 154.815 147.401C159.953 188.271 141.557 224.22 113.726 227.694C85.8951 231.169 59.1687 200.854 54.0308 159.985Z" fill="url(#paint1_linear_35_382)"/>
<path d="M87.9017 201.711C91.8843 206.23 99.3164 213.107 108.654 214.597C132.727 218.429 149.658 184.75 145.116 148.615C138.823 98.5627 97.2453 70.7093 76.5255 111.222C62.8808 137.879 67.9505 179.086 87.9015 201.711H87.9017Z" fill="url(#paint2_linear_35_382)"/>
<path d="M87.9017 201.711C91.8844 206.23 99.3165 213.107 108.655 214.597C117.331 210.858 122.831 202.366 125.572 197.007C145.484 158.107 124.029 98.5051 93.4477 93.6362C84.7665 97.3715 79.2664 105.863 76.5258 111.222C62.881 137.879 67.9507 179.086 87.9017 201.711Z" fill="url(#paint3_linear_35_382)"/>
<path d="M14.883 49.0098L24.5288 125.737C24.8205 127.306 25.5366 128.506 26.6662 129.107C29.7612 130.758 34.8377 127.314 37.999 121.416C39.8034 118.049 40.5958 114.607 40.3626 111.967L32.1763 46.8505C30.3726 32.5038 40.6146 19.3729 55.0104 17.5754C69.4019 15.7784 82.5779 25.9855 84.3814 40.332L89.4783 80.875C91.3078 80.3307 93.19 79.9333 95.1175 79.6927C99.1076 79.1944 103.074 79.3909 106.96 80.2121L101.675 38.1728C98.6772 14.3264 76.7722 -2.64663 52.844 0.341101C28.9157 3.32883 11.8852 25.1633 14.883 49.0098Z" fill="url(#paint4_linear_35_382)"/>
<path d="M85.0297 182.826C85.1174 182.826 85.2063 182.809 85.2919 182.772C85.6263 182.627 85.7801 182.24 85.6351 181.906C85.6193 181.87 84.0229 178.185 82.2305 172.917C82.1135 172.573 81.7391 172.389 81.3933 172.505C81.048 172.622 80.8631 172.996 80.9802 173.34C82.7913 178.662 84.4077 182.393 84.4238 182.43C84.5317 182.678 84.7747 182.826 85.0298 182.826L85.0297 182.826Z" fill="white"/>
<path d="M79.2856 166.256C79.3429 166.256 79.4008 166.248 79.4586 166.233C79.8104 166.138 80.0186 165.776 79.9234 165.426C78.8573 161.5 78.1076 157.846 77.6953 154.565C76.2356 142.953 78.7043 133.481 84.4686 128.577C84.7458 128.341 84.7787 127.926 84.5421 127.649C84.3054 127.373 83.8887 127.34 83.6112 127.576C77.5029 132.773 74.8692 142.67 76.3852 154.729C76.8052 158.07 77.5669 161.785 78.649 165.769C78.7286 166.063 78.9949 166.256 79.2858 166.256H79.2856Z" fill="white"/>
<path d="M102.831 128.27C103.023 128.27 103.213 128.187 103.343 128.027C103.573 127.745 103.531 127.33 103.248 127.101C99.8814 124.373 96.3716 123.345 92.2032 123.866C90.8972 124.029 89.6376 124.33 88.4599 124.762C88.1176 124.887 87.9423 125.265 88.0681 125.606C88.1938 125.947 88.5731 126.122 88.9154 125.997C89.9992 125.6 91.1606 125.322 92.3674 125.171C96.1546 124.699 99.3469 125.636 102.415 128.122C102.537 128.222 102.684 128.27 102.831 128.27L102.831 128.27Z" fill="white"/>
<path d="M126.551 152.888C127.389 152.888 128.24 152.781 129.106 152.568C129.46 152.481 129.676 152.124 129.588 151.771C129.501 151.419 129.143 151.203 128.789 151.29C124.633 152.313 120.783 150.475 117.019 145.67C115.355 143.544 113.791 141.053 112.279 138.644C110.87 136.398 109.412 134.076 107.85 132.007C107.631 131.716 107.217 131.658 106.925 131.876C106.634 132.095 106.576 132.507 106.795 132.798C108.323 134.822 109.765 137.12 111.16 139.342C112.69 141.78 114.271 144.3 115.978 146.479C119.341 150.772 122.821 152.888 126.551 152.888Z" fill="white"/>
<path d="M84.2116 146.471C84.5402 146.471 84.8248 146.227 84.866 145.894C85.2538 142.752 86.1629 140.072 87.4951 138.141C88.9952 135.967 90.9699 134.754 93.5319 134.434C96.2369 134.096 98.3661 134.726 100.436 136.474C102.469 138.192 104.174 140.939 105.573 143.399C105.753 143.715 106.156 143.826 106.473 143.647C106.79 143.467 106.902 143.066 106.722 142.75C105.265 140.189 103.481 137.322 101.29 135.47C98.946 133.49 96.4289 132.746 93.3677 133.128C90.41 133.498 88.1332 134.893 86.4071 137.395C84.9552 139.5 83.9691 142.383 83.5556 145.733C83.5111 146.093 83.7683 146.422 84.1302 146.466C84.1576 146.469 84.1846 146.471 84.2116 146.471Z" fill="white"/>
<path d="M97.1408 186.724C97.285 186.724 97.4301 186.677 97.5517 186.58C97.8369 186.354 97.884 185.94 97.657 185.656C97.6072 185.593 92.629 179.298 88.8201 169.247C86.8753 164.115 85.5571 158.873 84.9024 153.665C84.857 153.305 84.5283 153.047 84.1653 153.095C83.8036 153.14 83.547 153.469 83.5925 153.829C84.2601 159.139 85.6034 164.483 87.5849 169.712C91.4719 179.969 96.5732 186.412 96.6243 186.476C96.7545 186.639 96.9469 186.724 97.1408 186.724Z" fill="white"/>
<path d="M125.624 162.282C126.337 162.282 127.064 162.235 127.806 162.143C128.168 162.098 128.425 161.769 128.379 161.408C128.334 161.048 128.003 160.791 127.642 160.837C123.664 161.334 120.133 160.378 117.148 157.997C114.19 155.637 112.044 152.274 110.335 149.294C110.154 148.979 109.75 148.869 109.434 149.049C109.117 149.23 109.007 149.632 109.188 149.947C110.959 153.034 113.192 156.527 116.323 159.024C119.038 161.19 122.159 162.282 125.623 162.282L125.624 162.282Z" fill="white"/>
<path d="M122.738 172.068C123.357 172.068 123.979 172.029 124.602 171.951C124.963 171.906 125.22 171.577 125.175 171.217C125.129 170.856 124.799 170.6 124.437 170.646C113.928 171.957 106.824 160.786 104.897 157.331C103.784 155.331 102.85 152.92 101.947 150.588C101.565 149.602 101.17 148.583 100.773 147.627C99.2052 143.852 97.735 141.645 96.2786 140.881C95.9558 140.712 95.5568 140.836 95.3869 141.157C95.2172 141.479 95.3412 141.877 95.6637 142.046C96.4584 142.463 97.7783 143.856 99.5533 148.13C99.9442 149.071 100.319 150.038 100.715 151.062C101.634 153.435 102.585 155.889 103.743 157.969C105.388 160.921 108.205 165.091 112.278 168.199C115.649 170.771 119.16 172.068 122.738 172.068L122.738 172.068Z" fill="white"/>
<path d="M108.644 184.699C108.85 184.699 109.053 184.603 109.182 184.423C109.393 184.127 109.324 183.716 109.028 183.505C103.167 179.34 99.1014 172.099 96.7226 166.757C93.8049 160.205 92.2434 153.83 91.9059 151.144C91.4034 147.148 91.7835 143.89 92.8976 142.64C93.1396 142.368 93.115 141.952 92.8425 141.711C92.57 141.47 92.1528 141.494 91.9106 141.766C90.5102 143.337 90.0309 146.815 90.5958 151.308C90.9432 154.071 92.5402 160.608 95.5159 167.291C97.9615 172.782 102.158 180.239 108.261 184.577C108.377 184.659 108.511 184.699 108.644 184.699Z" fill="white"/>
<path d="M116.267 178.573C116.526 178.573 116.773 178.419 116.878 178.164C117.016 177.828 116.854 177.444 116.517 177.306C114.383 176.435 112.353 175.253 110.483 173.793C108.038 171.883 105.792 169.438 103.807 166.527C103.602 166.226 103.191 166.148 102.89 166.353C102.588 166.557 102.51 166.966 102.715 167.267C104.776 170.29 107.116 172.834 109.669 174.828C111.634 176.363 113.77 177.607 116.017 178.524C116.098 178.557 116.183 178.573 116.267 178.573L116.267 178.573Z" fill="white"/>
<path d="M100.048 162.017C100.146 162.017 100.246 161.995 100.339 161.949C100.666 161.789 100.801 161.394 100.64 161.068C99.715 159.192 98.8775 157.2 98.1511 155.147C96.7599 151.215 96.2435 148.363 96.2384 148.335C96.1746 147.977 95.832 147.739 95.4731 147.802C95.1142 147.866 94.8748 148.207 94.9383 148.565C94.9596 148.684 95.4758 151.542 96.9057 155.584C97.6494 157.686 98.5073 159.727 99.4554 161.649C99.5702 161.882 99.8047 162.017 100.048 162.017Z" fill="white"/>
</g>
<path d="M209.151 209.776C209.133 208.864 209.206 208.999 208.93 208.999C208.989 209.262 209.062 209.521 209.151 209.776Z" fill="#FFE497"/>
<path d="M184.386 174.118C184.518 174.224 184.617 174.364 184.672 174.524C184.726 174.684 184.734 174.856 184.693 175.019C184.133 177.208 183.552 180.628 185.89 182.019C187.935 183.24 191.74 181.916 193.542 180.242C193.664 180.13 193.818 180.057 193.983 180.034C195.082 176.504 196.852 173.219 199.197 170.36C199.236 168.814 199.4 167.547 199.4 167.547C197.894 168.225 196.237 168.498 194.593 168.34C190.642 167.342 187.906 161.859 190.686 155.93C191.352 154.191 192.365 152.606 193.664 151.273C194.963 149.939 196.52 148.884 198.241 148.173C198.979 147.927 199.761 147.844 200.534 147.93C201.307 148.016 202.052 148.268 202.719 148.669C206.455 150.95 204.172 157.175 204.172 157.175C206.351 155.985 207.577 155.797 208.146 156.19L207.91 143.46C207.808 143.387 207.725 143.291 207.667 143.18C207.609 143.069 207.578 142.945 207.577 142.82C206.495 114.893 206.83 114.226 205.265 111.643C204.545 110.469 203.558 109.482 202.384 108.762C201.211 108.042 199.884 107.609 198.512 107.498C198.269 107.551 159.856 114.946 153.726 117.932L151.584 119.131C148.341 121.157 145.687 124.002 143.89 127.378C142.093 130.754 141.215 134.543 141.345 138.366V248.317C164.957 245.125 187.941 238.33 209.493 228.17L209.217 213.389C208.173 212.129 207.471 210.62 207.181 209.01L193.557 209.091C192.722 209.091 192.647 208.012 192.698 208.232C192.305 204.671 191.974 201.1 191.854 197.518C181.476 200.652 166.558 189.178 171.016 173.975C171.358 172.811 172.246 170.115 173.346 169.559C174.481 168.965 175.43 169.795 184.386 174.118Z" fill="#3A9FFA" fill-opacity="0.22"/>
<path d="M208.146 156.19C207.566 155.797 206.34 155.985 204.172 157.175C207.939 146.907 196.578 143.357 190.686 155.93C187.911 161.857 190.638 167.342 194.593 168.34C196.237 168.499 197.894 168.226 199.4 167.547C199.4 167.547 199.237 168.817 199.197 170.36C199.155 172.023 199.197 175.569 200.853 175.848C203.342 176.263 208.113 173.772 208.113 171.904C207.36 168.438 206.319 165.04 205.002 161.746C207.608 161.477 209.427 157.054 208.146 156.19Z" fill="#BE7B5B"/>
<path d="M206.649 110.614C205.763 109.22 204.562 108.055 203.143 107.211C201.724 106.367 200.126 105.869 198.479 105.756C197.165 105.717 195.853 105.872 194.584 106.215C156.893 114.853 154.581 114.617 149.197 118.645C146.46 120.69 144.193 123.299 142.551 126.295C140.908 129.291 139.928 132.605 139.676 136.012C139.563 137.629 139.62 250.821 139.62 250.821C139.62 251.049 139.711 251.268 139.872 251.429C140.033 251.59 140.252 251.68 140.479 251.68C140.707 251.68 140.926 251.59 141.087 251.429C141.248 251.268 141.338 251.049 141.338 250.821V138.359C141.214 134.538 142.094 130.75 143.89 127.375C145.687 124 148.338 121.155 151.578 119.124C155.954 116.353 155.331 116.982 194.661 107.96C195.496 107.733 196.347 107.571 197.207 107.476C198.801 107.371 200.393 107.703 201.811 108.436C203.23 109.169 204.422 110.276 205.258 111.636C207.703 115.675 206.771 142.623 207.908 143.454C208.03 143.558 208.179 143.625 208.339 143.647C208.498 143.669 208.66 143.645 208.806 143.578C208.951 143.51 209.075 143.402 209.161 143.267C209.247 143.131 209.293 142.974 209.292 142.813C208.157 114.127 208.573 113.652 206.649 110.614ZM213.857 108.845C213.788 107.741 212.073 107.741 212.141 108.845L214.168 141.804C214.234 142.908 215.955 142.908 215.886 141.804C215.754 139.662 214.038 111.733 213.857 108.845Z" fill="#1D1D1B"/>
<path d="M254.913 198.682C255.487 197.616 253.968 194.723 245.197 194.487C244.435 197.89 242.424 200.885 239.562 202.878C243.687 209.228 246.345 207.438 244.592 203.099C249.552 206.303 250.916 205.616 251.184 205.212C252.199 203.69 250.17 201.407 250.17 201.407C250.17 201.407 253.125 203.518 253.972 202.761C255.777 201.153 252.906 199.111 250.74 198.057C251.217 198.258 254.366 199.698 254.913 198.682ZM184.742 167.134C186.493 168.41 185.184 171.588 183.839 173.401C183.545 173.803 183.227 173.547 184.3 174.05C184.331 174.07 184.36 174.093 184.386 174.119C185.307 172.836 189.551 166.781 188.092 165.977C186.99 165.368 185.552 166.399 184.742 167.134ZM183.426 168.503C182.412 168.885 181.48 169.458 180.681 170.19C179.798 170.897 178.734 169.651 179.517 168.943C180.705 167.861 182.852 166.317 184.342 166.905C185.963 160.722 182.71 161.026 179.641 166.021C180.538 161.605 178.095 158.555 173.9 169.289L174.096 169.384C175.314 169.662 176.473 170.152 177.521 170.831L182.267 173.074C182.245 172.981 182.242 172.884 182.258 172.79C182.275 172.695 182.31 172.605 182.362 172.524C183.404 171.093 184.561 168.327 183.426 168.503Z" fill="#BE7B5B"/>
<path d="M220.375 208.23H219.914C218.383 209.184 217.233 208.957 208.928 208.997C209.248 210.574 210.068 212.006 211.266 213.081C212.465 214.155 213.978 214.813 215.581 214.959C215.801 215.019 215.987 215.165 216.1 215.363C216.212 215.561 216.241 215.796 216.181 216.015C216.12 216.235 215.975 216.421 215.777 216.534C215.579 216.646 215.344 216.675 215.124 216.615C213.157 216.368 211.322 215.495 209.891 214.124C208.459 212.753 207.507 210.957 207.175 209.003L193.55 209.085C193.33 209.077 193.12 208.988 192.962 208.833C192.804 208.679 192.71 208.471 192.698 208.25C189.445 208.422 177.682 209.796 173.045 220.616C167.635 233.238 188.145 250.139 188.145 250.139C188.145 250.139 198.285 249.918 201.215 247.885C201.215 247.885 187.467 230.082 191.523 223.321C194.741 217.962 199.018 217.076 203.681 219.401C201.972 217.54 200.228 215.701 198.355 214.011C197.532 213.269 198.751 212.059 199.568 212.797C214.131 225.931 233.068 255.635 232.935 256.753C235.291 256.938 241.951 257.181 244.711 254.421L220.375 208.23Z" fill="#717171"/>
<path d="M191.855 197.519C192.045 203.211 192.758 208.48 192.705 208.257C192.717 208.477 192.811 208.685 192.969 208.84C193.127 208.994 193.336 209.084 193.557 209.092L207.181 209.01C207.508 210.966 208.459 212.765 209.892 214.136C211.324 215.508 213.162 216.38 215.131 216.621C215.351 216.682 215.585 216.653 215.783 216.54C215.982 216.428 216.127 216.241 216.188 216.022C216.248 215.802 216.219 215.568 216.107 215.369C215.994 215.171 215.808 215.026 215.588 214.965C213.986 214.819 212.473 214.159 211.275 213.086C210.076 212.012 209.256 210.58 208.935 209.003L217.156 208.952C218.013 209.019 218.872 208.83 219.621 208.408C220.371 207.986 220.979 207.351 221.367 206.583C222.142 204.856 221.848 204.794 217.703 189.64C224.275 194.395 231.081 198.816 238.096 202.889C238.316 203.037 238.577 203.113 238.842 203.108C239.107 203.104 239.365 203.018 239.58 202.862C242.501 200.824 244.535 197.749 245.268 194.264C245.309 194.117 245.309 193.962 245.271 193.815C245.232 193.668 245.155 193.534 245.047 193.427C237.8 187.423 216.504 171.038 207.416 168.815C207.806 170.126 207.994 171.023 207.946 170.802C208.237 170.952 219.545 174.693 243.468 194.345C242.786 197.146 241.135 199.615 238.807 201.314C231.701 197.66 213.192 184.431 206.844 179.767C205.949 179.105 205.093 180.604 205.976 181.251C206.197 181.412 213.455 186.634 215.495 188.076C215.694 188.798 219.779 203.606 219.945 204.333C220.083 204.9 220.005 205.498 219.726 206.011C219.447 206.523 218.987 206.914 218.437 207.106C217.902 207.29 218.962 207.208 194.33 207.367C193.078 195.772 192.486 184.027 198.605 174.083C199.733 172.259 199.089 174.105 199.192 170.358C199.029 170.488 198.881 170.636 198.751 170.8C196.657 173.588 195.041 176.705 193.968 180.023C192.734 180.966 191.35 181.695 189.874 182.178C185.817 183.282 183.044 181.428 184.689 175.008C184.733 174.826 184.719 174.635 184.648 174.461C184.578 174.287 184.455 174.139 184.296 174.039C183.218 173.533 183.53 173.818 183.835 173.39C187.505 168.428 184.961 163.981 179.513 168.932C179.363 169.089 179.279 169.299 179.278 169.516C179.277 169.734 179.359 169.944 179.507 170.104C179.656 170.263 179.86 170.359 180.077 170.373C180.294 170.388 180.509 170.318 180.677 170.179C181.388 169.57 182.167 169.045 183 168.616C183.594 168.413 184.091 168.214 183.729 169.87C183.459 170.737 183.048 171.553 182.512 172.286C182.291 172.586 182.196 172.727 182.256 173.074C175.174 169.727 174.428 168.974 173.341 169.541C172.255 170.109 171.354 172.822 171.012 173.957C166.547 189.207 181.56 200.623 191.855 197.519ZM175.006 189.094C173.192 186.472 172.148 183.394 171.992 180.209C171.836 177.024 172.574 173.859 174.123 171.071C174.037 171.122 174.189 171.109 174.344 171.168C175.048 171.447 175.715 171.882 176.402 172.206L182.876 175.267C182.242 178.177 182.161 181.81 185.025 183.503C186.349 184.082 187.802 184.305 189.239 184.151C190.677 183.996 192.049 183.468 193.219 182.62C192.185 186.915 191.712 191.326 191.813 195.743C185.976 197.726 178.555 194.098 175.006 189.094ZM232.94 256.764C233.077 255.611 214.17 225.988 199.572 212.808C198.755 212.07 197.534 213.28 198.36 214.022C205.338 220.316 219.006 236.347 231.354 257.119C231.45 257.268 231.59 257.384 231.754 257.451C231.918 257.518 232.098 257.533 232.271 257.495C232.444 257.456 232.601 257.365 232.72 257.234C232.84 257.104 232.917 256.939 232.94 256.764ZM243.055 257.85C239.471 258.745 235.79 259.19 232.096 259.175C232.096 259.175 223.531 258.274 222.63 259.396C221.729 260.518 223.531 265.93 243.59 263.677C249.459 263.013 247.039 256.823 243.055 257.85ZM199.108 250.406C195.525 251.302 191.843 251.747 188.149 251.731C188.149 251.731 179.584 250.833 178.683 251.952C177.782 253.072 179.584 258.488 199.643 256.231C205.512 255.573 203.088 249.386 199.108 250.406ZM202.708 148.669C206.444 150.95 204.161 157.175 204.161 157.175C208.725 154.687 209.14 156.553 208.102 159.041C207.866 159.724 207.454 160.332 206.908 160.806C206.361 161.279 205.701 161.6 204.991 161.737C204.991 161.737 205.19 162.267 205.486 163.087C216.884 164.153 217.92 158.025 218.121 156.398C218.342 154.594 213.163 154.481 213.163 154.481C220.23 150.644 219.103 146.229 212.943 148.285C212.943 148.285 218.353 145.58 216.889 143.663C215.425 141.747 207.084 142.312 202.688 143.884C201.667 144.21 200.735 144.766 199.963 145.509C199.191 146.251 198.599 147.161 198.234 148.168C198.972 147.925 199.754 147.843 200.526 147.93C201.298 148.016 202.042 148.269 202.708 148.669ZM197.64 152.861C198.634 153.357 198.11 154.018 198.79 154.406C198.987 154.52 199.221 154.552 199.441 154.494C199.661 154.437 199.849 154.295 199.965 154.099C200.396 153.276 199.356 151.432 198.095 151.198C197.874 151.137 197.639 151.167 197.44 151.28C197.242 151.394 197.096 151.581 197.036 151.802C196.976 152.022 197.005 152.258 197.119 152.456C197.232 152.655 197.42 152.8 197.64 152.861ZM195.204 157.617C196.492 157.617 196.492 155.243 195.204 155.243C193.917 155.243 193.919 157.617 195.204 157.617ZM190.287 163.17C193.319 164.252 198.552 161.554 197.132 160.13C196.161 159.154 194.52 162.245 191.391 161.676C190.819 161.57 189.947 161.21 189.695 162.117C189.641 162.335 189.673 162.565 189.783 162.761C189.893 162.956 190.073 163.103 190.287 163.17Z" fill="#1D1D1B"/>
<defs>
<linearGradient id="paint0_linear_35_382" x1="164.812" y1="170.81" x2="-128.924" y2="123.844" gradientUnits="userSpaceOnUse">
<stop offset="0.004" stop-color="#7BD8ED"/>
<stop offset="0.179" stop-color="#C7D5FF"/>
<stop offset="0.462" stop-color="#7095FE"/>
<stop offset="0.76" stop-color="#3359C6"/>
</linearGradient>
<linearGradient id="paint1_linear_35_382" x1="189.965" y1="146.28" x2="-31.7212" y2="165.622" gradientUnits="userSpaceOnUse">
<stop offset="0.055" stop-color="#B6C9FF"/>
<stop offset="0.166" stop-color="#AABEF6"/>
<stop offset="0.346" stop-color="#587DE9"/>
<stop offset="0.535" stop-color="#5D7CD6"/>
</linearGradient>
<linearGradient id="paint2_linear_35_382" x1="157.15" y1="147.114" x2="23.1621" y2="163.957" gradientUnits="userSpaceOnUse">
<stop offset="0.055" stop-color="#9DADDC"/>
<stop offset="0.25" stop-color="#708DE0"/>
<stop offset="0.567" stop-color="#7D99E7"/>
<stop offset="0.9" stop-color="#5D7CD6"/>
</linearGradient>
<linearGradient id="paint3_linear_35_382" x1="238.024" y1="167.845" x2="-15.8874" y2="142.22" gradientUnits="userSpaceOnUse">
<stop offset="0.055" stop-color="#CAD8FF"/>
<stop offset="0.25" stop-color="#91AAF4"/>
<stop offset="0.567" stop-color="#7D9AED"/>
<stop offset="0.9" stop-color="#6381D8"/>
</linearGradient>
<linearGradient id="paint4_linear_35_382" x1="11.4868" y1="-78.2882" x2="76.7043" y2="124.103" gradientUnits="userSpaceOnUse">
<stop offset="0.055" stop-color="#A2BAFF"/>
<stop offset="0.166" stop-color="#7E9EF7"/>
<stop offset="0.346" stop-color="#7191EE"/>
<stop offset="0.535" stop-color="#668EFF"/>
</linearGradient>
<clipPath id="clip0_35_382">
<rect width="155.676" height="232.962" fill="white" transform="matrix(-1 0 0 1 155.676 0)"/>
</clipPath>
</defs>
</svg>
