<svg width="270" height="247" viewBox="0 0 270 247" fill="none" xmlns="http://www.w3.org/2000/svg">
<path d="M1.5039 240.059C1.5039 240.922 4.96507 241.776 11.6898 242.573C18.4145 243.369 28.2711 244.093 40.6968 244.703C53.1224 245.313 67.8739 245.797 84.1088 246.127C100.344 246.457 117.744 246.627 135.317 246.627C152.889 246.627 170.29 246.457 186.525 246.127C202.76 245.797 217.511 245.313 229.937 244.703C242.362 244.093 252.219 243.369 258.944 242.573C265.668 241.776 269.13 240.922 269.13 240.059C269.13 239.197 265.668 238.343 258.944 237.546C252.219 236.749 242.362 236.025 229.937 235.415C217.511 234.805 202.76 234.321 186.525 233.991C170.29 233.661 152.889 233.491 135.317 233.491C117.744 233.491 100.344 233.661 84.1088 233.991C67.8739 234.321 53.1224 234.805 40.6968 235.415C28.2711 236.025 18.4145 236.749 11.6898 237.546C4.96507 238.343 1.5039 239.197 1.5039 240.059Z" fill="#FBE4C1"/>
<path d="M53.1541 238.704C53.1541 238.939 53.2476 239.165 53.4138 239.331C53.5801 239.497 53.8056 239.591 54.0408 239.591C54.2759 239.591 54.5014 239.497 54.6677 239.331C54.834 239.165 54.9274 238.939 54.9274 238.704C54.9274 238.469 54.834 238.243 54.6677 238.077C54.5014 237.911 54.2759 237.817 54.0408 237.817C53.8056 237.817 53.5801 237.911 53.4138 238.077C53.2476 238.243 53.1541 238.469 53.1541 238.704Z" fill="#1D1D1B"/>
<path d="M33.9067 238.762C34.0824 238.761 34.2542 238.813 34.4005 238.911C34.5467 239.008 34.6607 239.147 34.7282 239.309C34.7956 239.471 34.8134 239.65 34.7793 239.822C34.7452 239.994 34.6607 240.153 34.5366 240.277C34.4124 240.401 34.2542 240.486 34.0819 240.521C33.9096 240.555 33.731 240.537 33.5686 240.47C33.4063 240.403 33.2675 240.289 33.1698 240.143C33.0722 239.997 33.0201 239.825 33.0201 239.65C33.0199 239.533 33.0427 239.418 33.0872 239.31C33.1316 239.202 33.1969 239.104 33.2793 239.022C33.3616 238.939 33.4594 238.874 33.5671 238.829C33.6747 238.785 33.7902 238.762 33.9067 238.762Z" fill="#1D1D1B"/>
<path d="M46.8729 242.553C46.8729 242.788 46.9663 243.013 47.1326 243.179C47.2989 243.346 47.5244 243.439 47.7595 243.439C47.9947 243.439 48.2202 243.346 48.3865 243.179C48.5528 243.013 48.6462 242.788 48.6462 242.553C48.6462 242.317 48.5528 242.092 48.3865 241.926C48.2202 241.759 47.9947 241.666 47.7595 241.666C47.5244 241.666 47.2989 241.759 47.1326 241.926C46.9663 242.092 46.8729 242.317 46.8729 242.553Z" fill="#1D1D1B"/>
<path d="M94.4698 238.704C94.4698 238.939 94.5632 239.165 94.7295 239.331C94.8957 239.497 95.1213 239.591 95.3564 239.591C95.5916 239.591 95.8171 239.497 95.9833 239.331C96.1496 239.165 96.243 238.939 96.243 238.704C96.243 238.469 96.1496 238.243 95.9833 238.077C95.8171 237.911 95.5916 237.817 95.3564 237.817C95.1213 237.817 94.8957 237.911 94.7295 238.077C94.5632 238.243 94.4698 238.469 94.4698 238.704Z" fill="#1D1D1B"/>
<path d="M67.3063 238.704C67.3063 238.939 67.3997 239.165 67.566 239.331C67.7322 239.497 67.9578 239.591 68.1929 239.591C68.4281 239.591 68.6536 239.497 68.8198 239.331C68.9861 239.165 69.0795 238.939 69.0795 238.704C69.0795 238.469 68.9861 238.243 68.8198 238.077C68.6536 237.911 68.4281 237.817 68.1929 237.817C67.9578 237.817 67.7322 237.911 67.566 238.077C67.3997 238.243 67.3063 238.469 67.3063 238.704Z" fill="#1D1D1B"/>
<path d="M83.2415 242.412C83.2415 242.529 83.2645 242.644 83.309 242.752C83.3536 242.859 83.4189 242.957 83.5012 243.039C83.5835 243.122 83.6813 243.187 83.7889 243.232C83.8964 243.276 84.0117 243.299 84.1282 243.299C84.2446 243.299 84.3599 243.276 84.4675 243.232C84.575 243.187 84.6728 243.122 84.7551 243.039C84.8374 242.957 84.9027 242.859 84.9473 242.752C84.9919 242.644 85.0148 242.529 85.0148 242.412C85.0148 242.177 84.9214 241.952 84.7551 241.786C84.5888 241.619 84.3633 241.526 84.1282 241.526C83.893 241.526 83.6675 241.619 83.5012 241.786C83.3349 241.952 83.2415 242.177 83.2415 242.412Z" fill="#1D1D1B"/>
<path d="M148.524 237.714C148.524 237.949 148.618 238.175 148.784 238.341C148.95 238.507 149.176 238.601 149.411 238.601C149.646 238.601 149.872 238.507 150.038 238.341C150.204 238.175 150.298 237.949 150.298 237.714C150.298 237.479 150.204 237.253 150.038 237.087C149.872 236.921 149.646 236.827 149.411 236.827C149.176 236.827 148.95 236.921 148.784 237.087C148.618 237.253 148.524 237.479 148.524 237.714Z" fill="#1D1D1B"/>
<path d="M136.995 240.782C137.171 240.782 137.343 240.834 137.489 240.932C137.635 241.029 137.749 241.168 137.816 241.331C137.883 241.493 137.901 241.672 137.866 241.844C137.832 242.016 137.747 242.174 137.623 242.298C137.498 242.423 137.34 242.507 137.168 242.541C136.995 242.575 136.817 242.558 136.655 242.49C136.492 242.423 136.354 242.309 136.256 242.162C136.159 242.016 136.107 241.844 136.107 241.669C136.107 241.552 136.13 241.437 136.175 241.329C136.22 241.221 136.285 241.124 136.368 241.041C136.45 240.959 136.548 240.894 136.656 240.849C136.763 240.805 136.879 240.782 136.995 240.782ZM161.673 4.51296C159.24 3.46397 160.355 3.75904 118.913 3.75904L119.25 1.30388C119.272 1.12847 119.254 0.950343 119.197 0.783114C119.139 0.615885 119.044 0.463989 118.919 0.339049C118.794 0.214108 118.642 0.119434 118.475 0.062269C118.308 0.00510405 118.129 -0.0130369 117.954 0.00923483H50.1272C49.9269 0.0312911 49.7334 0.0946376 49.5589 0.195273C49.3844 0.295908 49.2326 0.431644 49.1132 0.593908C48.9938 0.756171 48.9093 0.941435 48.8651 1.138C48.821 1.33456 48.818 1.53815 48.8565 1.7359L49.2434 3.75904C35.3919 3.74351 21.5236 3.61786 7.67075 3.75904C6.73315 3.7233 5.79882 3.8896 4.93114 4.24667C4.06345 4.60374 3.2827 5.14323 2.64184 5.82855C2.00097 6.51388 1.51498 7.329 1.21681 8.21865C0.918652 9.1083 0.815295 10.0517 0.913752 10.9848C0.932106 11.1867 13.7896 109.715 13.8503 109.983C14.2616 112.698 15.6403 115.172 17.7323 116.95C19.8243 118.728 22.4885 119.69 25.2339 119.659C26.9281 119.674 44.0323 119.659 44.0323 119.659C41.2764 136.742 36.4974 153.411 32.0558 170.114C27.9954 185.412 15.6673 232.071 13.527 240.096C13.4988 240.236 13.5247 240.381 13.5995 240.503C13.6742 240.625 13.7923 240.713 13.9299 240.752C14.0675 240.79 14.2144 240.774 14.3411 240.708C14.4678 240.643 14.5648 240.531 14.6127 240.397C37.9812 152.966 42.3904 137.05 45.1717 119.659H49.386L49.8618 122.166C49.9179 122.462 50.0755 122.729 50.3074 122.922C50.5393 123.114 50.831 123.22 51.1324 123.221H117.192C117.506 123.221 117.809 123.107 118.046 122.901C118.283 122.695 118.437 122.411 118.481 122.1L118.81 119.659H132.747C137.039 146.519 149.585 185.935 163.179 236.644C163.229 236.776 163.326 236.885 163.452 236.95C163.578 237.014 163.723 237.028 163.859 236.991C163.995 236.953 164.112 236.865 164.187 236.746C164.262 236.626 164.289 236.482 164.263 236.343C152.386 191.954 138.342 147.304 133.884 119.652C152.504 119.652 151.383 119.7 152.544 119.541C155.183 119.145 157.599 117.835 159.371 115.839C161.143 113.843 162.159 111.289 162.24 108.621C163.317 90.2757 167.033 17.105 167.173 14.4084C167.398 10.245 165.749 6.27774 161.673 4.51296ZM166.1 13.4258C166.1 13.6489 161.159 108.018 161.145 108.247C160.852 113.883 156.894 118.405 151.037 118.531C147.353 118.608 150.896 118.531 118.972 118.531L119.254 116.448C119.276 116.273 119.258 116.095 119.2 115.927C119.143 115.76 119.048 115.608 118.922 115.484C118.797 115.359 118.645 115.264 118.478 115.207C118.31 115.15 118.132 115.132 117.957 115.155H50.1272C49.9269 115.177 49.7334 115.24 49.5589 115.341C49.3844 115.442 49.2326 115.577 49.1132 115.74C48.9938 115.902 48.9093 116.087 48.8651 116.284C48.821 116.48 48.818 116.684 48.8565 116.882L49.17 118.552C30.7654 118.779 25.7619 118.531 25.5854 118.531C23.0313 118.63 20.5305 117.782 18.5642 116.149C16.598 114.516 15.3052 112.213 14.9346 109.684C12.8832 93.9324 4.04659 28.3022 2.06015 11.198C1.93721 10.3848 1.99799 9.55437 2.23804 8.76776C2.47808 7.98114 2.89129 7.25829 3.44731 6.6523C4.00334 6.0463 4.68805 5.57257 5.45115 5.26588C6.21426 4.9592 7.03637 4.82735 7.85711 4.88003C9.5866 4.86592 49.4523 4.88003 49.4523 4.88003L49.8547 7.0133C49.9111 7.30929 50.0687 7.57641 50.3006 7.76885C50.5324 7.96129 50.824 8.06703 51.1253 8.06794H117.183C117.497 8.06796 117.801 7.95455 118.038 7.74858C118.275 7.54261 118.43 7.25793 118.474 6.94695L118.756 4.88003C118.756 4.88003 157.074 4.85039 158.012 4.88003C159.108 4.89802 160.189 5.13475 161.192 5.57632C162.195 6.0179 163.1 6.65542 163.854 7.45146C164.607 8.24751 165.194 9.18604 165.58 10.212C165.965 11.2379 166.142 12.3306 166.1 13.4258Z" fill="#1D1D1B"/>
<path d="M89.8376 31.5155H116.912C117.062 31.5155 117.206 31.4559 117.311 31.35C117.417 31.2441 117.477 31.1005 117.477 30.9507C117.477 30.8009 117.417 30.6573 117.311 30.5514C117.206 30.4455 117.062 30.386 116.912 30.386H89.8376C89.6878 30.386 89.5442 30.4455 89.4383 30.5514C89.3324 30.6573 89.2729 30.8009 89.2729 30.9507C89.2729 31.1005 89.3324 31.2441 89.4383 31.35C89.5442 31.4559 89.6878 31.5155 89.8376 31.5155ZM90.816 36.1773C90.6662 36.1773 90.5226 36.2368 90.4167 36.3427C90.3108 36.4486 90.2513 36.5923 90.2513 36.742C90.2513 36.8918 90.3108 37.0354 90.4167 37.1414C90.5226 37.2473 90.6662 37.3068 90.816 37.3068C99.6399 37.2842 108.493 37.4381 117.303 36.8451C118.022 36.7943 118.029 35.6719 117.303 35.7156C108.498 36.3086 99.6441 36.166 90.816 36.1773ZM117.411 40.585C108.618 41.0777 99.4804 42.227 90.7172 41.113C89.9985 41.0241 90.0112 42.1465 90.7172 42.2425C99.4902 43.3494 108.622 42.162 117.411 41.7145C118.129 41.6735 118.136 40.5483 117.411 40.585ZM89.8376 56.2732H116.912C117.062 56.2732 117.206 56.2137 117.311 56.1078C117.417 56.0019 117.477 55.8583 117.477 55.7085C117.477 55.5587 117.417 55.4151 117.311 55.3092C117.206 55.2033 117.062 55.1438 116.912 55.1438H89.8376C89.6878 55.1438 89.5442 55.2033 89.4383 55.3092C89.3324 55.4151 89.2729 55.5587 89.2729 55.7085C89.2729 55.8583 89.3324 56.0019 89.4383 56.1078C89.5442 56.2137 89.6878 56.2732 89.8376 56.2732ZM90.816 62.0575C99.6399 62.0462 108.493 62.1888 117.303 61.5958C118.022 61.5436 118.029 60.4226 117.303 60.4663C108.493 61.0607 99.6399 60.9068 90.816 60.928C90.6662 60.928 90.5226 60.9875 90.4167 61.0934C90.3108 61.1993 90.2513 61.343 90.2513 61.4927C90.2513 61.6425 90.3108 61.7862 90.4167 61.8921C90.5226 61.998 90.6662 62.0575 90.816 62.0575ZM117.411 65.34C108.615 65.7903 99.4804 66.9819 90.7172 65.868C89.9985 65.7805 90.0112 66.9014 90.7172 66.9975C99.4902 68.1043 108.622 66.917 117.411 66.4694C118.129 66.4327 118.136 65.3033 117.411 65.34ZM133.162 99.6643C64.1424 101.682 46.3774 102.392 25.4485 100.845C24.7228 100.792 24.7298 101.915 25.4485 101.974C52.852 103.996 74.58 102.457 133.162 100.794C133.888 100.764 133.888 99.6431 133.162 99.6643ZM133.162 104.164C64.1424 106.181 46.3774 106.891 25.4485 105.344C24.7228 105.293 24.7298 106.414 25.4485 106.474C52.852 108.495 74.58 106.956 133.162 105.293C133.888 105.271 133.888 104.143 133.162 104.164ZM89.8376 80.6512H116.912C117.062 80.6512 117.206 80.5917 117.311 80.4858C117.417 80.3799 117.477 80.2363 117.477 80.0865C117.477 79.9367 117.417 79.7931 117.311 79.6872C117.206 79.5813 117.062 79.5218 116.912 79.5218H89.8376C89.6878 79.5218 89.5442 79.5813 89.4383 79.6872C89.3324 79.7931 89.2729 79.9367 89.2729 80.0865C89.2729 80.2363 89.3324 80.3799 89.4383 80.4858C89.5442 80.5917 89.6878 80.6512 89.8376 80.6512ZM90.816 86.4425C99.6399 86.4312 108.493 86.5738 117.303 85.9809C118.022 85.9286 118.029 84.8076 117.303 84.8514C108.493 85.4458 99.6399 85.2919 90.816 85.3131C90.6662 85.3131 90.5226 85.3726 90.4167 85.4785C90.3108 85.5844 90.2513 85.728 90.2513 85.8778C90.2513 86.0276 90.3108 86.1712 90.4167 86.2771C90.5226 86.383 90.6662 86.4425 90.816 86.4425ZM90.7101 91.374C99.4846 92.471 108.615 91.2936 117.403 90.8474C118.122 90.8107 118.129 89.6812 117.403 89.718C108.608 90.1726 99.4733 91.3599 90.7101 90.246C89.9985 90.1584 89.9985 91.2865 90.7101 91.374Z" fill="#1D1D1B"/>
<path d="M122.555 65.9556C122.838 67.7741 123.113 69.584 123.391 71.4024C128.485 69.7967 133.576 68.1891 138.666 66.5796C138.321 65.2017 137.984 63.8308 137.639 62.4529C132.612 63.6172 127.584 64.7847 122.555 65.9556ZM190.773 65.4798C190.11 65.2692 189.444 65.0687 188.774 64.8784C186.036 65.5659 183.403 66.6187 180.946 68.0084C183.647 70.7329 186.695 73.091 190.011 75.0224C190.846 73.4304 191.886 71.9547 193.104 70.633C191.806 69.2024 190.99 67.3996 190.773 65.4798ZM235.554 137.755C240.089 136.572 244.25 134.257 247.647 131.027C246.848 129.246 246.042 127.472 245.247 125.691L230.156 136.516C230.847 137.211 231.72 137.697 232.676 137.916C233.631 138.135 234.629 138.08 235.554 137.755Z" fill="#6B8BE8"/>
<path d="M229.008 135.96C247.938 122.406 244.903 124.483 245.229 124.336C220.903 75.2044 222.825 78.7495 221.181 76.533C218.552 73.001 215.204 70.0659 211.359 67.9208C211.369 68.0055 211.361 68.0913 211.334 68.1723C211.308 68.2533 211.264 68.3275 211.205 68.3895C208.199 71.4925 204.762 74.1484 201.002 76.276C200.872 76.3503 200.719 76.3703 200.575 76.3317C200.431 76.2931 200.307 76.1989 200.233 76.0699C199.372 74.3714 198.302 72.7881 197.046 71.3572C196.978 71.4291 196.907 71.4979 196.833 71.5633C198.907 74.0114 198.723 78.7636 199.157 82.608C199.69 87.3362 200.108 92.1365 201.098 96.7983C201.582 99.0925 202.835 101.775 202.644 104.15C202.242 106.138 201.522 108.049 200.512 109.808C199.919 111.142 196.606 119.094 194.964 118.875C193.446 118.669 191.138 113.311 190.536 112.248C187.968 107.71 187.022 107.644 188.205 99.3565C189.011 93.942 190.134 88.5796 191.57 83.297C192.545 79.6474 193.058 75.3442 194.304 71.665C194.166 71.5734 194.031 71.4758 193.9 71.3727C192.648 72.7973 191.582 74.3757 190.728 76.0699C190.651 76.1968 190.528 76.2891 190.384 76.3275C190.24 76.3659 190.088 76.3475 189.957 76.276C186.278 74.1958 182.91 71.6074 179.953 68.5872C176.874 70.4776 174.144 72.8853 171.883 75.7042C165.85 83.273 155.814 83.9422 149.682 79.3905C145.325 76.3611 141.836 72.245 139.561 67.4507C139.482 67.4789 123.013 72.6744 123.062 72.6744C124.498 79.6884 127.605 90.1811 133.933 96.2745C142.215 104.249 158.259 105.95 165.89 104.257C166.424 110.091 167.326 115.947 168.149 121.693C168.706 125.544 169.771 138.08 170.23 141.101C170.371 141.066 220.931 141.094 220.789 141.094C220.84 139.57 221.705 112.319 222.086 100.211C222.109 99.485 223.237 99.485 223.216 100.211C223.165 101.919 222.586 120.175 222.352 127.6C223.948 130.884 226.12 133.855 228.764 136.373C228.766 136.289 228.789 136.207 228.832 136.134C228.874 136.062 228.935 136.001 229.008 135.96Z" fill="#8DAAFE"/>
<path d="M197.711 70.4777C198.989 71.8308 200.073 73.3557 200.93 75.0083C204.283 73.0575 207.362 70.6689 210.084 67.9054C209.886 67.5809 209.681 67.2608 209.469 66.9453C207.351 65.9438 205.128 65.1819 202.842 64.6737C201.839 64.9561 200.843 65.2516 199.853 65.5603C199.282 67.2581 198.565 68.9034 197.711 70.4777Z" fill="#6B8BE8"/>
<path d="M181.314 42.4657C181.314 42.4657 175.949 28.9347 179.136 21.2106C179.355 20.6872 179.73 20.244 180.21 19.9411C180.689 19.6381 181.251 19.4902 181.818 19.5173C182.384 19.5445 182.929 19.7454 183.378 20.0927C183.826 20.4401 184.157 20.9172 184.325 21.4591L185.878 26.4654C185.878 26.4654 188.818 19.9343 190.775 20.917C192.731 21.8996 192.41 25.8132 192.41 25.8132C192.41 25.8132 204.488 20.917 208.41 26.1421C212.332 31.3673 207.105 43.1179 207.105 43.1179C207.105 43.1179 205.64 33.1575 195.84 32.5052C186.041 31.853 181.314 42.4657 181.314 42.4657Z" fill="#C17E48"/>
<path d="M207.878 39.9512C206.66 37.3694 204.729 35.1898 202.313 33.6695C199.896 32.1492 197.096 31.3517 194.241 31.3709C191.387 31.3902 188.597 32.2256 186.202 33.7784C183.807 35.3312 181.905 37.5367 180.722 40.1347C180.195 39.9095 179.621 39.8139 179.049 39.8559C178.477 39.8979 177.924 40.0763 177.435 40.3761C176.946 40.676 176.536 41.0885 176.239 41.5793C175.942 42.0701 175.767 42.6249 175.729 43.1971C175.69 43.7694 175.789 44.3426 176.018 44.8687C176.246 45.3947 176.597 45.8585 177.042 46.221C177.486 46.5836 178.011 46.8344 178.572 46.9526C179.134 47.0707 179.715 47.0528 180.268 46.9002C180.956 49.4503 182.365 51.7475 184.327 53.5157C186.289 55.2839 188.72 56.4478 191.328 56.8677V65.6407H199.162V56.406C201.371 55.7568 203.376 54.5532 204.987 52.9098C206.599 51.2664 207.763 49.2379 208.369 47.0173C208.887 47.0657 209.409 47.0007 209.9 46.8271C210.391 46.6534 210.837 46.3751 211.21 46.0115C211.582 45.6478 211.871 45.2076 212.056 44.7213C212.241 44.235 212.318 43.7142 212.282 43.1951C212.246 42.6759 212.098 42.1708 211.847 41.7148C211.596 41.2588 211.249 40.8628 210.83 40.5542C210.411 40.2456 209.93 40.0318 209.42 39.9277C208.91 39.8236 208.384 39.8316 207.878 39.9512Z" fill="#FFCEB6"/>
<path d="M203.056 50.1389C197.729 50.1389 198.167 46.5472 193.902 46.5472C189.613 46.5472 190.115 50.1389 184.748 50.1389C183.479 50.1411 182.221 49.8945 181.047 49.4132C186.118 59.8678 202.826 59.6956 207.564 49.025C206.177 49.7629 204.628 50.1456 203.056 50.1389Z" fill="#C17E48"/>
<path d="M187.077 41.8134C187.273 41.8134 187.464 41.8714 187.626 41.9799C187.789 42.0885 187.915 42.2429 187.99 42.4235C188.065 42.6041 188.084 42.8028 188.046 42.9945C188.008 43.1862 187.914 43.3623 187.776 43.5005C187.638 43.6387 187.462 43.7328 187.27 43.771C187.078 43.8091 186.879 43.7895 186.699 43.7147C186.518 43.6399 186.364 43.5132 186.255 43.3507C186.147 43.1882 186.089 42.9971 186.089 42.8017C186.088 42.6716 186.113 42.5427 186.162 42.4224C186.211 42.302 186.284 42.1927 186.376 42.1008C186.468 42.0088 186.577 41.936 186.698 41.8867C186.818 41.8374 186.947 41.8125 187.077 41.8134ZM201.773 41.8134C201.968 41.8134 202.159 41.8714 202.322 41.9799C202.484 42.0885 202.611 42.2429 202.686 42.4235C202.761 42.6041 202.78 42.8028 202.742 42.9945C202.704 43.1862 202.61 43.3623 202.472 43.5005C202.333 43.6387 202.157 43.7328 201.966 43.771C201.774 43.8091 201.575 43.7895 201.395 43.7147C201.214 43.6399 201.06 43.5132 200.951 43.3507C200.842 43.1882 200.784 42.9971 200.784 42.8017C200.784 42.5396 200.889 42.2882 201.074 42.1029C201.259 41.9175 201.511 41.8134 201.773 41.8134ZM190.169 37.6796C188.918 37.3884 187.607 37.5111 186.432 38.0292C185.257 38.5473 184.282 39.4328 183.653 40.5526C183.589 40.6812 183.577 40.8294 183.618 40.9669C183.659 41.1045 183.752 41.2211 183.876 41.2931C184 41.365 184.147 41.3869 184.287 41.3543C184.427 41.3216 184.549 41.2369 184.629 41.1174C185.13 40.2104 185.911 39.4906 186.857 39.0664C187.802 38.6422 188.859 38.5365 189.87 38.7653C190.573 38.9319 190.873 37.8476 190.169 37.6796ZM198.98 38.7639C199.991 38.5344 201.048 38.6397 201.994 39.064C202.939 39.4883 203.721 40.2085 204.221 41.116C204.302 41.233 204.423 41.3153 204.562 41.3465C204.701 41.3776 204.846 41.3553 204.969 41.284C205.092 41.2127 205.184 41.0977 205.226 40.9619C205.267 40.826 205.256 40.6794 205.195 40.5512C204.567 39.4314 203.591 38.5459 202.417 38.0277C201.242 37.5096 199.93 37.387 198.679 37.6782C197.983 37.8476 198.276 38.9319 198.98 38.7639ZM190.924 39.6942C190.943 41.8416 191.804 45.6832 194.626 45.5293C196.978 45.3966 197.492 41.8205 197.602 40.0232C197.646 39.2975 196.525 39.3046 196.473 40.0232C196.399 41.1738 196.107 44.2008 194.626 44.3999C192.573 44.6822 192.061 41.0722 192.054 39.6872C192.053 39.613 192.038 39.5397 192.009 39.4713C191.981 39.403 191.939 39.341 191.886 39.2889C191.833 39.2368 191.771 39.1956 191.702 39.1676C191.633 39.1397 191.56 39.1255 191.485 39.126C191.411 39.1264 191.338 39.1415 191.27 39.1703C191.201 39.1991 191.139 39.2411 191.087 39.2939C191.035 39.3467 190.994 39.4092 190.966 39.4779C190.938 39.5466 190.924 39.6201 190.924 39.6942ZM191.321 49.457L197.66 49.5601C197.66 49.5601 197.396 52.1776 194.068 52.0887C190.741 51.9997 191.321 49.457 191.321 49.457Z" fill="#1D1D1B"/>
<path d="M221.305 141.793H170.292C170.964 157.415 172.778 184 174.361 198.201C175.722 210.422 175.571 227.651 183.06 228.668C189.769 229.585 190.591 215.194 191.98 208.741C194.821 195.462 197.285 179.437 199.119 165.981C199.354 164.236 200.255 161.553 199.925 159.795C199.925 159.795 212.305 226.932 224.303 226.932C236.3 226.932 221.305 141.793 221.305 141.793Z" fill="#2C3D6D"/>
<path d="M180.715 230.714C182.358 230.954 184.033 230.849 185.633 230.406C185.974 230.3 186.333 230.265 186.688 230.305C187.043 230.346 187.385 230.459 187.694 230.639C188.002 230.819 188.27 231.062 188.479 231.351C188.688 231.64 188.835 231.97 188.91 232.319C189.378 234.554 189.709 237.333 188.726 238.183C187.121 239.595 174.405 243.416 167.221 242.236C166.83 242.174 166.476 241.971 166.225 241.665C165.974 241.359 165.844 240.971 165.859 240.576C165.874 240.18 166.034 239.804 166.308 239.519C166.582 239.233 166.951 239.058 167.345 239.026C170.117 238.821 176.207 237.755 177.9 232.437C178.094 231.866 178.482 231.381 178.996 231.067C179.511 230.752 180.119 230.627 180.715 230.714ZM229.265 229.681C227.67 230.148 225.996 230.278 224.348 230.062C223.996 230.003 223.636 230.018 223.29 230.107C222.944 230.195 222.621 230.355 222.34 230.576C222.06 230.797 221.829 231.074 221.662 231.389C221.495 231.704 221.396 232.051 221.37 232.407C221.218 234.687 221.283 237.48 222.368 238.195C224.156 239.362 237.276 241.385 244.224 239.215C244.609 239.097 244.937 238.839 245.144 238.492C245.35 238.145 245.419 237.734 245.339 237.339C245.259 236.96 245.045 236.623 244.737 236.39C244.429 236.156 244.046 236.042 243.66 236.068C240.889 236.25 234.704 236.045 232.285 231.009C232.016 230.47 231.567 230.041 231.016 229.799C230.464 229.556 229.845 229.514 229.265 229.681Z" fill="#1D1D1B"/>
<path d="M132.846 60.0048C133.902 58.7215 133.851 56.5007 133.902 54.9477C133.907 53.0984 133.64 51.2585 133.11 49.4867C132.52 46.7676 131.453 44.1744 129.959 41.8276C129.424 41.0807 126.994 37.393 125.832 38.6608C125.143 39.4162 126.236 41.5791 126.455 42.3852C126.712 43.3382 127.13 44.3053 127.302 45.2428C126.868 43.9608 124.142 43.2789 123.042 43.8874C121.903 44.4969 121.007 45.4772 120.501 46.6659C118.317 46.0941 118.712 51.4732 119.036 52.5221C119.562 54.2163 121.11 56.0249 123.066 54.9477C122.554 55.23 123.659 58.9784 123.96 59.529C125.433 62.5532 131.108 62.1183 132.846 60.0048ZM247.574 137.719C244.914 136.5 242.076 136.428 240.282 139.272C238.948 141.382 238.984 144.512 239.011 146.924C239.035 148.566 238.87 151.46 239.745 152.926C240.983 154.994 241.722 151.967 242.004 150.823C242.223 149.951 242.553 147.342 243.727 147.305C245.573 147.254 246.182 154.048 246.439 155.382C246.607 156.253 246.783 160.606 248.374 159.259C249.965 157.912 248.366 154.539 248.953 152.897C250.008 149.932 251.554 155.837 252.536 156.416C255.175 157.984 253.167 151.696 253.321 150.398C255.35 149.87 255.497 154.716 258.004 154.034C258.517 152.304 257.298 150.252 256.714 148.617C255.953 146.533 254.912 144.563 253.621 142.76C252.049 140.609 249.973 138.878 247.574 137.719Z" fill="#FFCEB6"/>
<path d="M67.0197 84.4844C67.0197 86.4906 67.8166 88.4147 69.2353 89.8333C70.6539 91.2519 72.578 92.0489 74.5842 92.0489C76.5905 92.0489 78.5145 91.2519 79.9332 89.8333C81.3518 88.4147 82.1488 86.4906 82.1488 84.4844C82.1488 82.4781 81.3518 80.554 79.9332 79.1354C78.5145 77.7168 76.5905 76.9198 74.5842 76.9198C72.578 76.9198 70.6539 77.7168 69.2353 79.1354C67.8166 80.554 67.0197 82.4781 67.0197 84.4844Z" fill="#93E2C5"/>
<path d="M47.6141 39.2989C49.0655 36.9976 51.3893 35.3331 52.5767 32.8412C53.1379 31.4902 53.3618 30.0228 53.229 28.5659C53.0961 27.1089 52.6106 25.7063 51.8143 24.479C50.6606 22.3734 49.007 20.5837 46.9991 19.2673C44.9911 17.9509 42.6904 17.1483 40.2994 16.9299C29.2872 15.9036 21.2779 22.8074 25.8819 33.2888C27.2824 36.4767 30.0086 39.0942 32.1998 41.8868C33.3774 43.8305 34.3782 45.876 35.19 47.9986H44.477C44.4756 48.2089 45.7279 42.2976 47.6141 39.2989Z" fill="#FFB480"/>
<path d="M45.8677 35.3048C45.7879 35.0227 45.6345 34.7669 45.4232 34.5637C45.2119 34.3605 44.9503 34.2172 44.6653 34.1485C44.3803 34.0798 44.0821 34.0882 43.8014 34.1728C43.5207 34.2574 43.2676 34.4152 43.068 34.63C42.6471 35.0696 42.3402 35.6058 42.1744 36.1915C41.94 36.8734 41.7339 37.5623 41.5659 38.2654C41.0155 38.2384 40.481 38.0717 40.0128 37.7812C40.3917 37.3561 40.6758 36.8553 40.8462 36.312C41.0166 35.7686 41.0694 35.1953 41.0011 34.63C41.0055 34.2585 40.8787 33.8975 40.6431 33.6103C40.4075 33.3231 40.0782 33.1282 39.713 33.0599C39.3479 32.9916 38.9704 33.0543 38.6469 33.2369C38.3234 33.4195 38.0747 33.7103 37.9445 34.0582C37.7761 34.6643 37.7321 35.2983 37.8154 35.9219C37.8986 36.5455 38.1073 37.1458 38.4288 37.6866C37.8372 38.0906 37.1115 38.2481 36.4056 38.1257C35.9383 36.423 35.5585 34.6088 34.1778 33.8238C33.9432 33.6781 33.6681 33.6113 33.3928 33.6332C31.5574 33.8252 32.3255 37.9238 35.4894 39.0419C36.1796 41.6588 36.7393 44.3083 37.1666 46.9806C37.2048 47.1138 37.2907 47.2283 37.4078 47.3023C37.5249 47.3763 37.6651 47.4047 37.8018 47.382C37.9385 47.3593 38.0621 47.2872 38.149 47.1794C38.236 47.0715 38.2803 46.9355 38.2735 46.7971C37.8612 44.2706 37.3355 41.764 36.6979 39.2848C37.5786 39.3214 38.446 39.0603 39.1601 38.5436C39.7921 39.0143 40.5444 39.2967 41.3301 39.3582C40.8805 41.8108 40.8633 44.3231 41.2793 46.7816C41.3045 46.9293 41.3874 47.0609 41.5098 47.1475C41.6321 47.2341 41.7838 47.2685 41.9315 47.2432C42.0792 47.218 42.2109 47.135 42.2974 47.0127C42.384 46.8904 42.4185 46.7387 42.3932 46.591C41.9906 44.1991 42.0178 41.7546 42.4737 39.3723C45.1251 39.145 46.4465 37.0555 45.8677 35.3048ZM33.5481 34.7839C34.4432 35.2314 34.8187 36.6192 35.0715 37.599C34.5927 37.3049 34.1998 36.8899 33.9324 36.3957C33.665 35.9015 33.5324 35.3456 33.5481 34.7839ZM39.2716 36.9016C38.9065 36.1723 38.7957 35.3419 38.9568 34.5424C39.0059 34.4404 39.0801 34.3526 39.1725 34.2871C39.2648 34.2217 39.3723 34.1808 39.4848 34.1683C39.7361 34.1683 39.8434 34.5481 39.8801 34.798C39.9222 35.1714 39.89 35.5495 39.7856 35.9105C39.6812 36.2714 39.5065 36.6083 39.2716 36.9016ZM42.7306 38.2287C42.8718 37.664 43.0384 37.1148 43.229 36.5656C43.4351 35.991 43.7274 35.2385 44.3443 35.2385C45.1392 35.2385 45.3157 37.7798 42.7306 38.2287ZM35.5119 50.2857H43.8022C43.9145 50.2857 44.0223 50.2411 44.1017 50.1617C44.1811 50.0822 44.2257 49.9745 44.2257 49.8622C44.2257 49.7498 44.1811 49.6421 44.1017 49.5627C44.0223 49.4832 43.9145 49.4386 43.8022 49.4386H35.5119C35.3996 49.4386 35.2919 49.4832 35.2125 49.5627C35.133 49.6421 35.0884 49.7498 35.0884 49.8622C35.0884 49.9745 35.133 50.0822 35.2125 50.1617C35.2919 50.2411 35.3996 50.2857 35.5119 50.2857ZM35.5119 52.5362H43.8022C43.9145 52.5362 44.0223 52.4915 44.1017 52.4121C44.1811 52.3327 44.2257 52.2249 44.2257 52.1126C44.2257 52.0003 44.1811 51.8925 44.1017 51.8131C44.0223 51.7337 43.9145 51.6891 43.8022 51.6891H35.5119C35.3996 51.6891 35.2919 51.7337 35.2125 51.8131C35.133 51.8925 35.0884 52.0003 35.0884 52.1126C35.0884 52.2249 35.133 52.3327 35.2125 52.4121C35.2919 52.4915 35.3996 52.5362 35.5119 52.5362ZM140.851 12.6704C140.866 12.9497 140.812 13.2284 140.693 13.4816C140.575 13.7348 140.395 13.9546 140.171 14.1216C139.946 14.2885 139.684 14.3973 139.407 14.4382C139.131 14.4791 138.848 14.451 138.585 14.3562C138.333 14.248 138.108 14.0857 137.925 13.8809C137.743 13.676 137.607 13.4335 137.529 13.1706C137.451 12.9077 137.431 12.6307 137.472 12.3594C137.512 12.088 137.612 11.8289 137.763 11.6003C137.989 11.3245 138.294 11.1247 138.637 11.0277C138.98 10.9307 139.344 10.9413 139.681 11.0579C140.017 11.1746 140.31 11.3918 140.519 11.6802C140.729 11.9685 140.844 12.3142 140.851 12.6704C140.879 13.3891 142.007 13.4004 141.981 12.6704C141.983 12.0104 141.754 11.3703 141.334 10.8607C140.915 10.3512 140.33 10.0041 139.682 9.87938C139.034 9.7547 138.363 9.86023 137.784 10.1778C137.205 10.4953 136.756 11.0049 136.513 11.6186C136.364 12.023 136.306 12.4551 136.342 12.8844C136.378 13.3137 136.508 13.7298 136.723 14.1036C136.937 14.4773 137.231 14.7995 137.583 15.0475C137.935 15.2956 138.337 15.4634 138.762 15.5393C139.168 15.5991 139.583 15.5691 139.977 15.4511C140.371 15.3332 140.734 15.1303 141.041 14.8568C141.348 14.5832 141.591 14.2457 141.754 13.8679C141.916 13.4902 141.993 13.0814 141.981 12.6704C141.981 12.5207 141.921 12.377 141.815 12.2711C141.709 12.1652 141.566 12.1057 141.416 12.1057C141.266 12.1057 141.122 12.1652 141.016 12.2711C140.911 12.377 140.851 12.5207 140.851 12.6704Z" fill="#1D1D1B"/>
<path d="M152.291 12.6705C152.313 12.9763 152.27 13.2833 152.165 13.5715C152.06 13.8596 151.896 14.1225 151.683 14.343C151.47 14.5635 151.213 14.7367 150.928 14.8513C150.644 14.966 150.339 15.0195 150.032 15.0085C149.7 15.0043 149.373 14.9283 149.073 14.7858C148.773 14.6432 148.507 14.4375 148.294 14.1827C148.082 13.9279 147.926 13.63 147.839 13.3095C147.752 12.9891 147.735 12.6535 147.79 12.326C147.858 11.7469 148.148 11.2166 148.598 10.8461C149.048 10.4756 149.625 10.2935 150.206 10.338C150.787 10.3825 151.329 10.6501 151.718 11.0848C152.106 11.5196 152.312 12.0878 152.291 12.6705Z" fill="#FCAFB7"/>
<path d="M150.474 9.86377C149.835 9.74503 149.174 9.85656 148.609 10.1786C148.044 10.5006 147.611 11.0123 147.388 11.6229C147.239 12.0274 147.181 12.4595 147.217 12.8889C147.254 13.3183 147.384 13.7346 147.598 14.1083C147.813 14.482 148.107 14.8042 148.459 15.0522C148.812 15.3001 149.214 15.4679 149.638 15.5435C150.036 15.599 150.441 15.5689 150.826 15.4554C151.212 15.3419 151.568 15.1475 151.872 14.8852C152.176 14.6229 152.421 14.2987 152.59 13.9343C152.759 13.5699 152.848 13.1737 152.852 12.7721C152.869 12.0831 152.639 11.4107 152.202 10.877C151.766 10.3433 151.153 9.98384 150.474 9.86377ZM149.462 14.3562C149.21 14.2481 148.984 14.0858 148.802 13.8809C148.619 13.676 148.484 13.4335 148.406 13.1705C148.328 12.9075 148.308 12.6305 148.349 12.3592C148.39 12.0878 148.49 11.8287 148.642 11.6003C148.867 11.3243 149.172 11.1242 149.515 11.0271C149.857 10.93 150.222 10.9405 150.559 11.0572C150.895 11.174 151.188 11.3913 151.397 11.6798C151.606 11.9684 151.722 12.3142 151.728 12.6705C151.743 12.9497 151.689 13.2284 151.57 13.4816C151.451 13.7348 151.272 13.9547 151.047 14.1216C150.823 14.2885 150.561 14.3973 150.284 14.4383C150.007 14.4792 149.725 14.451 149.462 14.3562ZM45.2677 58.7002C43.5005 57.8333 41.5491 57.4089 39.5815 57.4638C37.6139 57.5186 35.6892 58.051 33.9731 59.0151C31.8645 60.4297 30.2626 62.4807 29.4009 64.8692C28.5392 67.2577 28.4626 69.859 29.1824 72.294C29.9021 74.7291 31.3805 76.8707 33.4023 78.407C35.424 79.9432 37.8834 80.7938 40.4223 80.8348C52.78 80.5892 55.4554 63.6501 45.2677 58.7002ZM42.1885 79.5515C39.4746 80.0499 36.6738 79.4534 34.3985 77.8924C32.1233 76.3315 30.5586 73.9331 30.0468 71.2217C29.5772 69.1663 29.7275 67.0178 30.4789 65.0478C31.2303 63.0779 32.549 61.375 34.2682 60.1544C35.8588 59.1487 37.69 58.5878 39.571 58.53C41.452 58.4722 43.3141 58.9197 44.9635 59.8258C46.6129 60.7319 47.9893 62.0636 48.9493 63.6823C49.9094 65.3009 50.418 67.1472 50.4223 69.0292C50.3898 74.1061 47.4066 78.6635 42.1885 79.5515Z" fill="#1D1D1B"/>
<path d="M32.4553 66.7773C32.4553 67.1251 32.5935 67.4587 32.8395 67.7047C33.0855 67.9507 33.4191 68.0889 33.7669 68.0889C34.1148 68.0889 34.4484 67.9507 34.6944 67.7047C34.9403 67.4587 35.0785 67.1251 35.0785 66.7773C35.0785 66.4294 34.9403 66.0958 34.6944 65.8499C34.4484 65.6039 34.1148 65.4657 33.7669 65.4657C33.4191 65.4657 33.0855 65.6039 32.8395 65.8499C32.5935 66.0958 32.4553 66.4294 32.4553 66.7773Z" fill="#1D1D1B"/>
<path d="M45.0178 66.9609C45.0178 67.1331 45.0517 67.3037 45.1176 67.4628C45.1835 67.6219 45.2801 67.7665 45.4019 67.8883C45.5237 68.0101 45.6683 68.1067 45.8274 68.1726C45.9866 68.2385 46.1571 68.2725 46.3293 68.2725C46.5016 68.2725 46.6721 68.2385 46.8313 68.1726C46.9904 68.1067 47.135 68.0101 47.2568 67.8883C47.3786 67.7665 47.4752 67.6219 47.5411 67.4628C47.607 67.3037 47.6409 67.1331 47.6409 66.9609C47.6409 66.7886 47.607 66.6181 47.5411 66.459C47.4752 66.2998 47.3786 66.1552 47.2568 66.0334C47.135 65.9117 46.9904 65.815 46.8313 65.7491C46.6721 65.6832 46.5016 65.6493 46.3293 65.6493C46.1571 65.6493 45.9866 65.6832 45.8274 65.7491C45.6683 65.815 45.5237 65.9117 45.4019 66.0334C45.2801 66.1552 45.1835 66.2998 45.1176 66.459C45.0517 66.6181 45.0178 66.7886 45.0178 66.9609Z" fill="#1D1D1B"/>
<path d="M44.0846 71.2767C44.051 72.2992 43.6213 73.2686 42.8861 73.9801C42.1509 74.6915 41.1679 75.0893 40.1449 75.0893C39.1218 75.0893 38.1388 74.6915 37.4036 73.9801C36.6685 73.2686 36.2387 72.2992 36.2052 71.2767C36.1685 70.5581 35.039 70.551 35.0757 71.2767C35.0645 71.9489 35.1872 72.6167 35.4367 73.241C35.6862 73.8654 36.0575 74.4338 36.5289 74.9132C37.0003 75.3925 37.5625 75.7733 38.1826 76.0331C38.8027 76.293 39.4683 76.4269 40.1406 76.4269C40.813 76.4269 41.4786 76.293 42.0987 76.0331C42.7188 75.7733 43.2809 75.3925 43.7523 74.9132C44.2238 74.4338 44.5951 73.8654 44.8446 73.241C45.0941 72.6167 45.2168 71.9489 45.2056 71.2767C45.2451 70.551 44.117 70.551 44.0846 71.2767Z" fill="#1D1D1B"/>
<path d="M67.1453 41.6439L76.1457 22.8878C78.2875 25.5386 79.909 28.5703 80.9247 31.8233C81.2255 32.6224 83.3658 39.841 84.018 39.7676L67.1453 41.6439Z" fill="#FFB480"/>
<path d="M65.3184 58.5265L75.3988 48.446L85.4779 58.5265L75.3974 68.6069L65.3184 58.5265Z" fill="#96ABE8"/>
<path d="M143.548 38.192C143.728 38.351 143.956 38.4458 144.196 38.4617C144.436 38.4775 144.675 38.4135 144.875 38.2796C148.78 35.6437 155.322 32.8666 155.48 27.0739C155.529 25.696 155.13 24.3395 154.342 23.2082C153.554 22.0768 152.42 21.2317 151.111 20.7997C150.125 20.5513 149.092 20.5639 148.113 20.8362C147.134 21.1086 146.243 21.6312 145.527 22.3528C145.423 22.4743 145.293 22.5713 145.147 22.6366C145.001 22.702 144.842 22.734 144.683 22.7305C144.523 22.727 144.365 22.688 144.222 22.6163C144.079 22.5446 143.954 22.4421 143.855 22.316C143.129 21.2292 142.062 20.4144 140.822 19.9999C139.582 19.5853 138.24 19.5944 137.005 20.0257C135.771 20.457 134.715 21.2861 134.004 22.3827C133.292 23.4794 132.965 24.7814 133.073 26.0842C133.111 27.4876 133.46 28.865 134.095 30.1172C134.73 31.3694 135.635 32.4652 136.744 33.3255C138.688 34.9236 141.573 36.4809 143.548 38.192Z" fill="#FFB480"/>
<path d="M189.926 76.3425C190.056 76.4168 190.209 76.4368 190.353 76.3982C190.498 76.3596 190.621 76.2654 190.696 76.1363C191.551 74.4425 192.617 72.8638 193.869 71.4378C193.996 71.5449 194.131 71.6431 194.272 71.7314C193.026 75.4107 192.513 79.7139 191.537 83.3635C190.224 88.271 187.111 101.416 187.777 106.458C188.071 108.694 189.412 110.372 190.504 112.314C191.105 113.377 193.415 118.735 194.931 118.94C196.58 119.16 199.887 111.208 200.48 109.873C201.485 108.112 202.205 106.203 202.613 104.216C202.796 101.841 201.55 99.159 201.06 96.8648C200.071 92.2057 199.648 87.4055 199.119 82.6745C198.677 78.7595 198.879 74.0836 196.795 71.6284C196.869 71.5638 196.94 71.4955 197.008 71.4237C198.268 72.8517 199.339 74.4355 200.196 76.1363C200.273 76.2632 200.396 76.3554 200.539 76.3938C200.682 76.4322 200.835 76.4138 200.965 76.3425C204.727 74.2171 208.163 71.561 211.167 68.456C211.253 68.367 211.308 68.2525 211.324 68.1296C211.34 68.0067 211.315 67.882 211.255 67.7741C210.125 65.9486 208.235 62.7085 205.715 62.892C203.498 63.1495 201.326 63.7042 199.257 64.541C196.724 64.245 194.166 64.245 191.633 64.541C189.569 63.6975 187.398 63.1427 185.182 62.892C182.654 62.7085 180.779 65.9416 179.642 67.7741C179.582 67.882 179.557 68.0067 179.573 68.1296C179.589 68.2525 179.644 68.367 179.73 68.456C182.733 71.5603 186.167 74.2163 189.926 76.3425ZM210.059 67.9718C207.332 70.7297 204.254 73.1173 200.904 75.0732C200.043 73.4253 198.962 71.9018 197.691 70.5441C198.548 68.975 199.266 67.3344 199.839 65.6408C200.936 65.2888 202.041 64.9593 203.152 64.6526C206.807 63.6431 208.005 64.661 210.062 67.9746L210.059 67.9718ZM190.745 65.5378C190.954 67.4594 191.774 69.2632 193.084 70.6839C191.866 72.0055 190.826 73.4812 189.991 75.0732C186.639 73.1234 183.561 70.7378 180.837 67.9788C183.855 63.1504 185.267 63.8041 190.748 65.5378H190.745ZM138.571 61.6835C138.553 61.6116 138.52 61.5442 138.475 61.4851C138.43 61.4261 138.374 61.3766 138.309 61.3397C138.245 61.3027 138.174 61.279 138.1 61.2699C138.027 61.2608 137.952 61.2665 137.881 61.2868C132.502 62.5452 127.125 63.7961 121.75 65.0394C121.608 65.0813 121.488 65.1762 121.414 65.3045C121.34 65.4327 121.319 65.5845 121.354 65.7284C121.692 67.928 122.031 70.1295 122.373 72.3329C122.413 72.4762 122.507 72.5981 122.636 72.6721C122.765 72.7462 122.918 72.7663 123.062 72.7282C128.53 70.9982 133.995 69.2711 139.458 67.5468C139.599 67.504 139.719 67.4089 139.792 67.2808C139.866 67.1527 139.887 67.0014 139.853 66.8578C139.428 65.1354 138.987 63.4144 138.571 61.6835ZM137.618 62.5038C137.962 63.8817 138.3 65.2526 138.643 66.6305C133.549 68.2362 128.458 69.8438 123.37 71.4533C123.087 69.6349 122.812 67.8249 122.534 66.0079C127.562 64.8493 132.59 63.6812 137.618 62.5038ZM248.784 130.942C245.723 124.265 245.977 124.393 245.587 124.33C245.257 124.213 246.279 123.624 228.979 136.013C228.906 136.059 228.845 136.119 228.799 136.191C228.752 136.263 228.723 136.344 228.711 136.429C228.7 136.514 228.708 136.6 228.734 136.681C228.76 136.763 228.803 136.837 228.861 136.9C229.414 137.602 230.112 138.176 230.908 138.582C231.704 138.989 232.578 139.218 233.471 139.253C238.633 138.971 244.955 135.321 248.688 131.63C248.778 131.542 248.836 131.427 248.854 131.302C248.871 131.178 248.847 131.051 248.784 130.942ZM235.532 137.816C234.607 138.14 233.609 138.195 232.653 137.976C231.697 137.757 230.823 137.273 230.131 136.578L245.222 125.752C246.021 127.534 246.827 129.307 247.622 131.089C244.225 134.318 240.063 136.632 235.528 137.813L235.532 137.816ZM222.045 100.28C221.671 112.388 220.8 139.646 220.748 141.164H170.278C170.128 141.164 169.984 141.223 169.878 141.329C169.773 141.435 169.713 141.579 169.713 141.728C169.713 141.878 169.773 142.022 169.878 142.128C169.984 142.234 170.128 142.293 170.278 142.293H221.291C221.44 142.29 221.582 142.229 221.687 142.124C221.792 142.019 221.853 141.877 221.856 141.728C222.237 129.619 223.117 101.988 223.168 100.28C223.196 99.5543 222.068 99.5543 222.045 100.28ZM129.739 46.2028C129.092 46.7261 128.657 47.4659 128.515 48.2853C128.383 47.5525 128.207 46.8734 128.083 46.3722C127.913 45.6663 126.829 45.9685 126.997 46.673C127.196 47.5073 128.097 51.8685 126.514 51.8247C124.696 50.0077 124.388 46.9144 124.537 44.4592C124.581 43.7335 123.453 43.7406 123.408 44.4592C123.11 47.0851 123.72 49.7338 125.137 51.9645C125.114 52.0228 125.101 52.0851 125.101 52.148C125.041 53.4003 124.368 54.3759 123.041 54.2065C122.322 54.1189 122.335 55.2484 123.041 55.3359C123.406 55.3809 123.776 55.3528 124.13 55.2533C124.483 55.1538 124.814 54.9849 125.102 54.7564C125.39 54.5279 125.629 54.2444 125.807 53.9223C125.984 53.6003 126.095 53.2462 126.134 52.8808C127.122 52.8808 127.271 52.8511 127.652 52.5871C128.372 52.0944 127.793 51.5466 127.923 56.0757C127.944 56.8014 129.074 56.8014 129.052 56.0757C128.915 53.657 129.108 51.231 129.624 48.8641C129.794 48.1822 130.269 46.1591 131.413 47.6697C131.597 48.1697 131.697 48.697 131.707 49.2298C132.036 51.2459 132.242 53.2831 132.431 55.3204C132.497 56.039 133.627 56.039 133.56 55.3204C133.411 53.9792 133.359 43.8168 129.739 46.2028ZM202.688 239.751C202.863 239.751 203.035 239.803 203.182 239.9C203.328 239.998 203.442 240.137 203.509 240.299C203.577 240.461 203.594 240.64 203.56 240.812C203.526 240.985 203.441 241.143 203.317 241.267C203.193 241.392 203.034 241.476 202.862 241.51C202.69 241.545 202.511 241.527 202.349 241.46C202.186 241.392 202.048 241.278 201.95 241.132C201.853 240.986 201.801 240.814 201.801 240.638C201.801 240.403 201.895 240.178 202.061 240.011C202.227 239.845 202.453 239.752 202.688 239.751Z" fill="#1D1D1B"/>
<path d="M204.997 85.4077C204.928 85.4153 204.861 85.4392 204.802 85.4774C204.744 85.5157 204.695 85.5673 204.66 85.628C204.077 85.9103 204.266 86.1927 205.02 96.8209C205.022 96.9431 205.062 97.0615 205.136 97.159C205.21 97.2565 205.312 97.328 205.429 97.3631C211.133 98.5942 210.759 98.7551 211.857 98.7622C212.529 98.7622 212.481 98.6394 216.871 96.4609C216.956 96.4126 217.028 96.3425 217.077 96.2577C217.127 96.1728 217.153 96.0763 217.153 95.9781C217.183 93.6175 217.22 91.264 217.249 88.9048C217.401 88.165 217.34 87.3974 217.074 86.6905C216.808 85.9836 216.348 85.3662 215.747 84.9093C214.442 84.3305 212.339 84.7343 210.947 84.7922C208.952 84.8679 206.965 85.0735 204.997 85.4077ZM212.018 97.6638C211.571 97.6172 213.457 97.9829 206.111 96.3734L205.688 90.2898C207.482 91.4306 210.33 89.8522 213.876 90.1218C214.618 90.2486 215.376 90.251 216.118 90.1289C216.104 91.1397 216.09 92.152 216.082 93.1558C215.947 93.9772 215.923 94.8128 216.008 95.6406C215.664 95.7948 215.329 95.9682 215.004 96.1602C213.971 96.5815 212.972 97.0843 212.018 97.6638ZM215.654 86.2802C216.123 86.773 216.416 88.6267 215.727 89.0432C215.229 89.351 214.078 88.9853 213.529 88.9556C208.703 88.7283 205.182 91.552 205.456 86.4694C207.706 86.1068 209.98 85.9086 212.258 85.8765C213.111 85.8623 214.972 85.563 215.654 86.2802Z" fill="#1D1D1B"/>
</svg>
