<svg width="276" height="236" viewBox="0 0 276 236" fill="none" xmlns="http://www.w3.org/2000/svg">
<path d="M118.565 69.5523H118.575C118.728 69.5668 118.88 69.561 119.033 69.5683V69.4404C118.88 69.4883 118.723 69.5256 118.565 69.5523Z" fill="#D1A9FF"/>
<path d="M155.907 57.1066C155.686 53.905 155.087 50.7407 154.124 47.6794C153.446 45.2561 152.456 42.9314 151.178 40.7637C150.965 40.4206 150.729 40.0916 150.472 39.7788C149.897 38.9867 149.102 38.3806 148.186 38.0357C147.174 37.8078 146.136 37.7145 145.099 37.7583C142.819 37.6828 140.539 37.5728 138.259 37.4286C133.672 37.138 129.096 36.709 124.532 36.1416C121.937 35.8181 119.348 35.4492 116.765 35.0347C116.686 35.0245 116.606 35.032 116.53 35.0565C117.518 35.0825 118.457 35.495 119.145 36.2055L119.164 36.2287C120.02 37.4133 120.584 38.7836 120.809 40.2277C121.598 43.6539 122.157 47.1289 122.484 50.6296C122.664 52.3727 122.81 54.1274 122.946 55.8792C123.067 57.4262 123.209 58.9761 123.218 60.5275C123.234 63.2757 122.782 66.3378 120.748 68.3714C120.269 68.8599 119.68 69.2261 119.03 69.439V69.5668C119.268 69.577 119.505 69.5959 119.742 69.5915C121.018 69.5622 122.282 69.3333 123.488 68.9132C126.678 67.7975 129.312 65.4918 130.841 62.4783C132.313 59.4008 133.058 56.0264 133.02 52.6153C132.854 51.2361 133.181 49.8428 133.944 48.6817C134.137 48.4466 134.385 48.2626 134.666 48.1456C134.947 48.0286 135.253 47.9822 135.556 48.0106C135.952 48.0823 136.328 48.2383 136.658 48.4682C136.989 48.698 137.266 48.9962 137.47 49.3426C138.982 51.6967 139.837 54.4116 139.949 57.2069C140.163 55.7416 140.209 54.2565 140.084 52.7809C139.946 51.2382 139.103 49.0288 140.351 47.7273C141.599 46.4258 143.42 47.4368 144.427 48.4899C145.036 49.1801 145.546 49.9515 145.942 50.7821C146.403 51.6632 146.805 52.5746 147.143 53.51C147.177 53.6045 147.201 53.7003 147.235 53.8006L147.076 50.8794C146.908 49.9546 147.102 49.0004 147.62 48.2154C148.346 47.4005 149.348 47.8464 150.022 48.4681C150.616 49.0362 151.165 49.6496 151.664 50.3028C153.762 53.0746 154.939 56.4346 155.029 59.9101C155.038 60.3125 155.029 60.7148 155.012 61.1172C154.96 62.2473 154.811 63.3789 154.66 64.4944C154.553 65.2716 154.43 66.0465 154.291 66.8186C154.437 66.5527 154.567 66.2826 154.686 66.0066C155.783 63.176 156.201 60.1279 155.907 57.1066Z" fill="#D1A9FF"/>
<path d="M113.529 52.2231L113.552 52.2739C113.572 52.3132 113.583 52.3558 113.586 52.3995C113.588 52.4432 113.582 52.4869 113.568 52.5282C113.554 52.5696 113.531 52.6076 113.502 52.6403C113.473 52.6729 113.438 52.6995 113.398 52.7184C113.381 52.7271 113.362 52.7344 113.343 52.7402C113.284 52.7791 113.216 52.8025 113.146 52.8084C112.431 52.8651 111.715 52.9014 111 52.929C111.03 53.6931 111.087 54.4566 111.17 55.2197C111.295 56.3818 111.471 57.5526 111.695 58.7059C111.908 58.3137 112.12 57.9215 112.326 57.5308C112.962 56.3213 113.602 55.1132 114.247 53.9066C114.247 53.8979 114.258 53.895 114.263 53.8877L114.277 53.8703C114.32 53.8021 114.384 53.7502 114.459 53.7225C114.535 53.6949 114.618 53.6932 114.694 53.7178C114.752 53.7267 114.807 53.7483 114.856 53.7809C114.905 53.8135 114.946 53.8564 114.976 53.9066C116.62 56.4166 118.247 58.9383 119.928 61.4237C119.964 61.4881 119.983 61.5608 119.982 61.6347C119.982 61.7086 119.963 61.7812 119.926 61.8453C119.889 61.9094 119.836 61.9629 119.773 62.0005C119.709 62.0381 119.637 62.0586 119.563 62.0599L118.436 62.1093L112.599 62.3708C112.991 63.9455 113.681 65.4303 114.633 66.7445C115.388 67.788 116.51 68.5076 117.774 68.7592C118.443 68.7497 119.098 68.5546 119.663 68.1956C120.229 67.8366 120.684 67.3277 120.978 66.7256C122.21 64.3319 122.675 61.6171 122.31 58.9499C122.165 56.3615 121.941 53.7715 121.674 51.1888C121.634 51.2425 121.582 51.2868 121.523 51.3186C121.464 51.3505 121.399 51.3691 121.332 51.3733C119.624 51.3878 117.919 51.5781 116.212 51.4401C116.1 51.4356 115.993 51.3877 115.915 51.3065C115.837 51.2252 115.794 51.117 115.794 51.0043C115.795 50.9342 115.814 50.8654 115.847 50.8039C117.275 48.3345 118.703 45.8826 119.948 43.3188C119.981 43.2395 120.042 43.1753 120.12 43.1383C120.197 43.1013 120.285 43.0942 120.368 43.1183C120.435 43.1199 120.5 43.14 120.557 43.1764C120.352 42.0913 120.118 41.0121 119.854 39.9401C119.693 38.6359 119.106 37.4214 118.183 36.4858C117.776 36.1628 117.286 35.961 116.769 35.9035C116.253 35.846 115.73 35.935 115.262 36.1604C114.9 36.4738 114.573 36.826 114.287 37.2107C113.089 39.0467 112.3 41.1197 111.976 43.2882C111.661 44.8527 111.461 46.4331 111.281 48.0164C112.144 49.3246 112.884 50.71 113.491 52.1548C113.507 52.1759 113.519 52.1988 113.529 52.2231Z" fill="#1D1D1B"/>
<path d="M111.17 55.2123C111.088 54.4502 111.031 53.6867 111 52.9216C110.718 52.9333 110.435 52.9434 110.153 52.9507C110.178 53.5114 110.216 54.0711 110.267 54.6299C110.427 56.3913 110.696 58.1412 111.073 59.8693C111.276 59.4771 111.483 59.0898 111.695 58.7072C111.471 57.5452 111.295 56.3802 111.17 55.2123Z" fill="white"/>
<path d="M113.552 52.2666L113.529 52.2158C113.521 52.1908 113.511 52.1669 113.497 52.1446C112.889 50.7013 112.149 49.3174 111.286 48.0106C111.054 47.6561 110.812 47.3066 110.56 46.9618C110.315 46.6248 110.07 46.2849 109.806 45.9581C109.726 45.8783 109.618 45.8336 109.505 45.8336C109.392 45.8336 109.283 45.8783 109.203 45.9581C109.18 45.9813 109.16 46.0077 109.144 46.0365C107.888 48.0737 106.764 50.1886 105.777 52.3683C105.749 52.4173 105.732 52.4712 105.725 52.527C105.719 52.5828 105.723 52.6393 105.738 52.6933C105.754 52.7473 105.78 52.7977 105.815 52.8417C105.85 52.8856 105.893 52.9222 105.942 52.9493C106.003 52.9829 106.072 53.0013 106.141 53.0031C107.479 53.0031 108.817 52.9958 110.153 52.9581C110.435 52.9493 110.718 52.9406 111 52.929C111.715 52.9014 112.431 52.8651 113.146 52.8084C113.216 52.8025 113.284 52.779 113.343 52.7402C113.428 52.7161 113.5 52.6594 113.544 52.5823C113.587 52.5053 113.598 52.4142 113.574 52.3291C113.569 52.3076 113.561 52.2867 113.552 52.2666ZM111.009 44.5767C110.986 44.5142 110.954 44.4561 110.929 44.3936C110.089 42.5353 109.133 40.7315 108.067 38.993C108.009 38.8968 107.916 38.8275 107.807 38.8003C107.698 38.773 107.583 38.7901 107.486 38.8477C107.427 38.8839 107.377 38.9337 107.341 38.993C106.476 40.9402 105.572 42.8701 104.631 44.7815C104.595 44.8459 104.577 44.9184 104.578 44.9919C104.578 45.0654 104.598 45.1376 104.635 45.2013C104.671 45.2651 104.724 45.3183 104.787 45.356C104.85 45.3936 104.922 45.4144 104.995 45.4163C106.904 45.271 108.82 45.3829 110.717 45.0967C110.752 45.0893 110.786 45.0766 110.817 45.0589C110.893 45.0305 110.955 44.9737 110.99 44.9006C111.019 44.8521 111.036 44.7974 111.039 44.741C111.042 44.6845 111.032 44.6282 111.009 44.5767ZM119.928 61.4179C118.247 58.9325 116.62 56.4108 114.976 53.9008C114.946 53.8506 114.905 53.8077 114.856 53.7751C114.807 53.7425 114.752 53.7209 114.694 53.7119C114.617 53.6874 114.535 53.6891 114.459 53.7167C114.384 53.7443 114.32 53.7963 114.277 53.8645L114.263 53.8819C114.263 53.8819 114.251 53.8921 114.247 53.9008C113.602 55.1064 112.962 56.3145 112.326 57.525C112.12 57.9157 111.908 58.3079 111.694 58.7001C111.481 59.0923 111.278 59.4772 111.073 59.8622C110.718 60.529 110.399 61.2141 110.117 61.9147C110.102 61.9684 110.098 62.0246 110.105 62.0799C110.113 62.1353 110.131 62.1886 110.158 62.237C110.186 62.2853 110.223 62.3277 110.267 62.3616C110.312 62.3955 110.362 62.4204 110.416 62.4347C110.451 62.4446 110.487 62.4495 110.524 62.4492L111.722 62.3969L112.594 62.3577L118.43 62.0962L119.557 62.0468C119.613 62.0459 119.669 62.0339 119.72 62.0114C119.772 61.989 119.818 61.9565 119.857 61.916C119.896 61.8755 119.927 61.8277 119.947 61.7754C119.967 61.723 119.977 61.6672 119.976 61.6111C119.975 61.5437 119.959 61.4775 119.928 61.4179ZM120.725 43.4103C120.718 43.361 120.7 43.3139 120.673 43.2719C120.646 43.2299 120.611 43.1939 120.57 43.1662C120.513 43.1297 120.447 43.1095 120.379 43.1081C120.297 43.0841 120.209 43.0912 120.132 43.1282C120.055 43.1652 119.994 43.2295 119.961 43.3086C118.716 45.8724 117.288 48.3301 115.86 50.7937C115.808 50.8932 115.795 51.0093 115.826 51.1176C115.857 51.2259 115.929 51.3181 116.026 51.3747C116.087 51.4083 116.155 51.4267 116.225 51.4285C117.932 51.5665 119.637 51.3762 121.345 51.3617C121.412 51.3575 121.477 51.3389 121.536 51.307C121.595 51.2752 121.647 51.2309 121.687 51.1772C121.716 51.145 121.737 51.1073 121.751 51.0663C121.765 51.0253 121.77 50.982 121.767 50.939C121.441 48.4246 121.226 45.8985 120.725 43.4103Z" fill="#AC47F5"/>
<path d="M98.5588 16.019C98.1894 14.8176 97.3688 13.8062 96.2693 13.1973C95.1698 12.5884 93.8771 12.4293 92.6628 12.7536C93.4589 10.6723 93.7036 8.42063 93.3731 6.21695C93.161 5.30631 92.7678 4.44763 92.2171 3.69202C91.6663 2.9364 90.9692 2.29927 90.1673 1.81855C88.5707 0.858728 86.7397 0.359497 84.877 0.376135C82.7757 0.435481 80.7193 0.998389 78.8807 2.01755C76.7014 3.23584 74.6565 4.68041 72.7799 6.32735C72.3996 5.54678 71.8638 4.85217 71.2053 4.28615C70.5469 3.72014 69.7797 3.29465 68.9509 3.03581C66.8564 2.37773 64.5913 2.52748 62.6017 3.4556C60.4014 4.50971 58.394 5.92637 56.6635 7.64629C55.0996 9.08725 53.6078 10.6028 52.1881 12.1929C46.0684 19.036 40.9583 27.4449 39.7047 36.6804C39.3081 39.6075 39.3619 42.5781 39.8645 45.4889C40.133 45.436 40.4048 45.4006 40.6779 45.3828C41.0524 45.3532 41.429 45.3601 41.8022 45.4032C42.9221 45.5933 43.9949 45.9977 44.9616 46.5943C44.9863 46.1033 45.0211 45.6152 45.0778 45.1272C45.8498 39.3157 48.3794 33.879 52.3276 29.5454C56.1069 25.1373 60.8391 21.6464 66.1663 19.3366C68.3381 18.4604 70.6013 17.8305 72.9135 17.4585C75.3232 17.0287 77.7702 16.8438 80.2171 16.9065C82.3928 16.8765 84.5452 17.356 86.5024 18.3068C88.8563 19.7693 90.8356 21.762 92.2822 24.1258C92.8632 24.9901 93.3833 25.8892 93.8801 26.8014C94.0558 27.121 94.2316 27.4406 94.3986 27.7645C94.7385 26.906 95.1249 26.0664 95.5374 25.2385C96.6472 23.2493 97.5814 21.1671 98.3293 19.0156C98.6595 18.0525 98.7385 17.0211 98.5588 16.019Z" fill="#1D1D1B"/>
<path d="M56.389 66.2433C52.3801 64.4533 49.1313 61.3063 47.2145 57.3564C47.1317 57.5337 47.0315 57.7022 46.9342 57.8721C46.5001 60.2993 46.1609 62.7424 45.9173 65.196C45.7721 66.6399 45.6457 68.0852 45.5193 69.5305C45.3001 70.9728 45.4118 72.4461 45.8462 73.8389C46.4148 75.1841 47.3142 76.3638 48.4608 77.2684C49.5792 78.2801 50.7749 79.2029 52.0371 80.0283C54.5676 81.6973 57.4465 82.7651 60.4533 83.1499C63.6982 83.5202 66.9808 83.3884 70.1856 82.7591C71.7449 82.4614 73.2913 82.0994 74.8208 81.6741C76.2269 81.39 77.5804 80.8891 78.8328 80.1895C79.6552 79.6395 80.3592 78.9304 80.9035 78.1042C81.4479 77.278 81.8214 76.3513 82.0023 75.3786L82.7286 71.8561L84.0214 65.6216C79.7981 67.4021 75.2859 68.3983 70.7056 68.5616C65.821 68.8506 60.9328 68.059 56.389 66.2433Z" fill="#CB967C"/>
<path d="M44.6376 72.4138C44.8118 73.7474 45.3238 75.0144 46.1251 76.0946C47.1058 77.2742 48.2318 78.325 49.4762 79.222C51.8349 81.1466 54.5554 82.579 57.477 83.4345C63.9322 85.1776 70.8088 83.7642 77.0621 81.8991C78.4356 81.488 79.6795 80.7289 80.6732 79.6956C81.4816 78.8616 82.1026 77.8647 82.4947 76.7715C82.8055 75.7364 83.0481 74.682 83.221 73.6151L84.9641 65.1901C84.6896 65.3165 84.4165 65.4487 84.1405 65.5678L84.0141 65.6172C83.5842 67.6963 83.1533 69.7745 82.7214 71.8517L81.9951 75.3741C81.8142 76.3469 81.4406 77.2736 80.8963 78.0998C80.352 78.926 79.6479 79.635 78.8255 80.1851C77.5731 80.8847 76.2197 81.3855 74.8135 81.6696C73.2841 82.095 71.7377 82.457 70.1783 82.7547C66.9736 83.384 63.691 83.5158 60.4461 83.1455C57.4396 82.7609 54.5612 81.6931 52.0313 80.0239C50.7681 79.1993 49.5718 78.2765 48.4536 77.264C47.3069 76.3594 46.4075 75.1797 45.8389 73.8344C45.4046 72.4417 45.2928 70.9684 45.5121 69.5261C45.6385 68.0735 45.7648 66.6354 45.9101 65.1916C46.1585 62.7367 46.4911 60.2949 46.9269 57.8677C46.6127 58.4162 46.2407 58.9295 45.8171 59.3987C45.6086 60.6699 45.4284 61.9456 45.2768 63.2248C45.1068 64.6774 44.9674 66.1299 44.841 67.5753C44.6639 68.9005 44.5722 70.2358 44.5665 71.5728C44.5752 71.7659 44.5665 71.9606 44.5926 72.1538C44.5999 72.2438 44.6246 72.3296 44.6376 72.4138Z" fill="#1D1D1B"/>
<path d="M96.486 51.6246L96.4482 51.6129C96.4144 51.6049 96.3817 51.5927 96.3509 51.5766C96.2573 51.5339 96.1844 51.4558 96.1482 51.3594C96.1119 51.263 96.1154 51.1562 96.1577 51.0624C96.1707 51.0036 96.1976 50.9488 96.2362 50.9026C96.9219 49.7535 97.5854 48.5912 98.2262 47.4164C98.2901 46.1686 98.2668 44.9178 98.1565 43.6731H93.2613C93.2049 43.6724 93.1493 43.6605 93.0976 43.6381C93.0459 43.6158 92.9991 43.5834 92.9599 43.5429C92.9208 43.5024 92.89 43.4546 92.8695 43.4021C92.8489 43.3497 92.8389 43.2937 92.84 43.2374C92.8405 43.202 92.8454 43.1669 92.8546 43.1328C93.6346 41.1064 94.5744 39.1469 95.3559 37.122C95.3802 37.0439 95.4264 36.9744 95.489 36.9216C95.5516 36.8689 95.6279 36.8352 95.709 36.8245C95.7902 36.8138 95.8727 36.8266 95.9468 36.8613C96.0209 36.896 96.0835 36.9512 96.1272 37.0203C96.6211 37.9108 97.1019 38.8085 97.5885 39.7018C97.5754 39.6335 97.5667 39.5638 97.5522 39.4941C96.9584 36.4839 96.0494 33.5447 94.8402 30.7249C93.7337 28.0296 92.292 25.4845 90.5493 23.1497C89.1334 21.0918 87.1609 19.4795 84.8625 18.5014C82.7431 17.8597 80.5254 17.6048 78.3157 17.749C73.5393 17.8303 68.8366 18.9401 64.5278 21.0027C59.5121 23.5605 55.1226 27.1936 51.6725 31.6429C48.0827 36.0983 46.0148 41.5866 45.7721 47.3031C45.771 47.3592 45.7588 47.4145 45.7363 47.4659C45.7138 47.5173 45.6814 47.5637 45.6409 47.6026C45.6004 47.6414 45.5527 47.6719 45.5005 47.6923C45.4482 47.7127 45.3924 47.7226 45.3364 47.7215C45.2657 47.7198 45.1965 47.7014 45.1344 47.6677C44.0231 46.8947 42.7451 46.3945 41.4042 46.2079C40.2736 46.1517 39.1516 46.4312 38.1795 47.0112C34.0919 49.3818 34.0847 54.8841 36.5512 58.4473C37.751 60.1802 39.8717 61.7214 42.071 61.075C43.1339 60.6977 44.0852 60.0599 44.8381 59.2201C45.7264 58.3946 46.3868 57.354 46.7555 56.1987C46.8456 55.8748 47.3743 55.7542 47.5283 56.0985C48.5288 58.3831 49.9629 60.4519 51.7509 62.1906C53.7062 64.0187 56.0481 65.383 58.6028 66.1823C63.0239 67.5496 67.6699 68.0382 72.2788 67.6204C76.7178 67.2861 81.0566 66.1332 85.076 64.2199C87.1042 63.2484 89.024 62.0652 90.8035 60.6901C92.6664 59.3036 94.301 57.6343 95.6479 55.7426C96.4803 54.5032 97.1135 53.1412 97.5246 51.7059C97.1978 51.6856 96.8709 51.6725 96.5456 51.642C96.5252 51.6381 96.5052 51.6323 96.486 51.6246ZM42.2177 53.9661C41.3575 54.051 40.527 54.3258 39.786 54.7708C39.6905 54.8169 39.5811 54.8254 39.4796 54.7945C39.3781 54.7637 39.2919 54.6958 39.2381 54.6043C39.1843 54.5129 39.1669 54.4046 39.1893 54.3009C39.2117 54.1972 39.2723 54.1057 39.359 54.0446C40.2316 53.5291 41.2082 53.215 42.2177 53.1251C42.7595 53.0728 42.7537 53.9182 42.2177 53.969V53.9661ZM58.1757 36.05C56.193 36.7331 54.554 38.161 53.6059 40.0315C53.3575 40.5167 52.6297 40.0882 52.8796 39.6059C53.9429 37.5445 55.766 35.9771 57.9636 35.2351C58.4677 35.0594 58.6899 35.8757 58.1757 36.05ZM59.9478 46.189C59.9478 46.3011 59.9033 46.4086 59.824 46.4879C59.7448 46.5672 59.6372 46.6117 59.5251 46.6117C59.413 46.6117 59.3055 46.5672 59.2262 46.4879C59.147 46.4086 59.1024 46.3011 59.1024 46.189V43.2563C59.1024 43.1441 59.147 43.0366 59.2262 42.9574C59.3055 42.8781 59.413 42.8336 59.5251 42.8336C59.6372 42.8336 59.7448 42.8781 59.824 42.9574C59.9033 43.0366 59.9478 43.1441 59.9478 43.2563V46.189ZM83.9938 45.1257V45.1359C83.5494 47.1374 82.8277 49.0672 81.8498 50.8692C81.0179 52.4748 79.7516 53.8144 78.1952 54.7351C76.6388 55.6559 74.855 56.1207 73.0472 56.0767C69.2937 55.7978 66.1707 53.1323 63.9192 50.3085C63.8612 50.2486 63.822 50.173 63.8064 50.0911C63.7907 50.0092 63.7993 49.9245 63.831 49.8474C63.8628 49.7703 63.9164 49.7042 63.9852 49.6571C64.054 49.61 64.1351 49.584 64.2184 49.5822C70.9077 49.6045 77.4913 47.9132 83.3416 44.6696C83.3853 44.64 83.4348 44.6201 83.4869 44.6115C83.5602 44.5939 83.637 44.5983 83.7078 44.6242C83.7785 44.65 83.8401 44.6961 83.8849 44.7568C83.9632 44.8619 84 44.9923 83.988 45.1228L83.9938 45.1257ZM82.3117 28.9237C81.8324 29.1808 81.4068 28.4516 81.8861 28.1974C82.565 27.8272 83.3132 27.602 84.0836 27.536C84.854 27.47 85.6296 27.5646 86.3615 27.8139C86.8743 27.9896 86.652 28.8045 86.1378 28.6273C85.5143 28.4087 84.852 28.3223 84.1933 28.3739C83.5345 28.4254 82.8937 28.6136 82.3117 28.9266V28.9237ZM87.191 39.9211C87.2955 40.4528 86.4806 40.6794 86.3761 40.1463C86.1659 39.0733 85.9548 38.0008 85.7427 36.9288C85.6381 36.3957 86.453 36.1706 86.5576 36.7037L87.191 39.9211ZM85.8938 51.732C85.5336 52.1417 84.938 51.5418 85.2968 51.135C86.0614 50.2428 86.5328 49.1368 86.6469 47.9673C86.761 46.7979 86.5122 45.6216 85.9345 44.5984C85.8884 44.5029 85.8799 44.3935 85.9108 44.292C85.9416 44.1904 86.0095 44.1043 86.101 44.0505C86.1924 43.9967 86.3008 43.9793 86.4045 44.0017C86.5082 44.0241 86.5996 44.0846 86.6608 44.1714C87.3294 45.3569 87.6144 46.7205 87.4766 48.0747C87.3387 49.4288 86.7848 50.707 85.8909 51.7335L85.8938 51.732ZM89.3248 53.1992C89.0851 53.6872 88.3559 53.2587 88.5985 52.7735C89.3249 51.2773 89.6908 49.6318 89.6668 47.9687C89.6428 46.3057 89.2297 44.6714 88.4605 43.1967C88.2063 42.7159 88.9369 42.2903 89.1868 42.7711C90.0269 44.3764 90.4771 46.157 90.5011 47.9686C90.525 49.7803 90.1221 51.5722 89.3248 53.1992Z" fill="#CB967C"/>
<path d="M47.2145 57.3564C49.132 61.3068 52.3819 64.4538 56.3919 66.2433C60.9347 68.0569 65.8213 68.8469 70.7042 68.5572C75.2845 68.3939 79.7967 67.3977 84.0199 65.6172L84.1463 65.5678C84.4223 65.4487 84.6954 65.3165 84.9699 65.1902C89.0095 63.4199 92.5953 60.757 95.4575 57.4014C96.8069 55.7369 97.8051 53.8162 98.3918 51.7553C98.1012 51.7466 97.8107 51.7233 97.5202 51.7059C97.1091 53.1412 96.4759 54.5032 95.6435 55.7426C94.2966 57.6343 92.662 59.3036 90.7991 60.6901C89.0196 62.0652 87.0998 63.2484 85.0716 64.2198C81.0522 66.1332 76.7134 67.2861 72.2744 67.6203C67.6656 68.0382 63.0195 67.5496 58.5984 66.1823C56.0437 65.383 53.7019 64.0187 51.7466 62.1906C49.9585 60.4519 48.5245 58.383 47.5239 56.0985C47.3699 55.7542 46.8412 55.8748 46.7511 56.1987C46.3824 57.3539 45.722 58.3945 44.8337 59.2201C44.0808 60.0599 43.1295 60.6977 42.0666 61.075C39.8659 61.7214 37.7451 60.1802 36.5468 58.4473C34.0774 54.8841 34.0876 49.3818 38.1751 47.0111C39.1472 46.4311 40.2692 46.1517 41.3998 46.2079C42.7427 46.3936 44.0228 46.8938 45.1359 47.6677C45.235 47.7208 45.3508 47.7335 45.4591 47.7032C45.5674 47.6729 45.6598 47.6019 45.7169 47.505C45.7517 47.4434 45.7702 47.3739 45.7706 47.3031C46.0145 41.5866 48.0828 36.0985 51.6725 31.6429C55.1226 27.1936 59.5121 23.5605 64.5278 21.0027C68.8366 18.9401 73.5393 17.8303 78.3157 17.749C80.5254 17.6048 82.743 17.8597 84.8624 18.5014C87.1609 19.4795 89.1334 21.0918 90.5493 23.1496C92.292 25.4845 93.7337 28.0296 94.8402 30.7248C96.0514 33.5485 96.9609 36.4923 97.5536 39.5071C97.5681 39.5769 97.5769 39.6524 97.5899 39.7148C97.9831 40.4402 98.3855 41.1597 98.797 41.8734L98.7534 41.5378C98.0675 36.7401 96.5982 32.0875 94.4044 27.7659C94.2374 27.442 94.0616 27.1224 93.8859 26.8029C93.3886 25.8903 92.8556 24.9978 92.288 24.1272C90.8414 21.7635 88.8621 19.7708 86.5082 18.3082C84.551 17.3575 82.3986 16.8779 80.2229 16.9079C77.776 16.8452 75.329 17.0301 72.9193 17.4599C70.6071 17.8319 68.3439 18.4619 66.1721 19.3381C60.8447 21.6474 56.1124 25.1384 52.3334 29.5468C48.3842 33.8801 45.8536 39.3168 45.0807 45.1286C45.024 45.6167 44.9892 46.1047 44.9645 46.5957C43.9978 45.9992 42.925 45.5947 41.8051 45.4046C41.431 45.3608 41.0535 45.3535 40.6779 45.3828C40.4057 45.4007 40.135 45.4361 39.8674 45.4888C39.4056 45.5786 38.9544 45.7159 38.5208 45.8985C37.4357 46.372 36.478 47.0955 35.7259 48.0099C34.9739 48.9243 34.4488 50.0036 34.1936 51.1597C33.6941 53.6983 34.192 56.3317 35.5837 58.5127C36.8097 60.4809 39.0045 62.3112 41.4667 62.0482C42.8582 61.8259 44.1384 61.1533 45.1112 60.1337C45.3581 59.9013 45.5949 59.6558 45.8244 59.4075C46.2479 58.9382 46.62 58.425 46.9342 57.8764C47.0286 57.7021 47.1288 57.5336 47.2145 57.3564Z" fill="#1D1D1B"/>
<path d="M98.2262 47.4295C98.5167 46.9095 98.8072 46.3923 99.0977 45.8781C99.0909 45.146 99.0556 44.4154 98.9917 43.6862H98.1565C98.2668 44.9308 98.2901 46.1816 98.2262 47.4295ZM59.1024 43.2562V46.189C59.1024 46.3011 59.147 46.4086 59.2262 46.4879C59.3055 46.5671 59.413 46.6117 59.5251 46.6117C59.6372 46.6117 59.7447 46.5671 59.824 46.4879C59.9033 46.4086 59.9478 46.3011 59.9478 46.189V43.2562C59.9478 43.1441 59.9033 43.0366 59.824 42.9573C59.7447 42.8781 59.6372 42.8335 59.5251 42.8335C59.413 42.8335 59.3055 42.8781 59.2262 42.9573C59.147 43.0366 59.1024 43.1441 59.1024 43.2562ZM85.7427 36.9288L86.376 40.1463C86.4806 40.6793 87.2955 40.4527 87.1909 39.9211C86.9789 38.8491 86.7677 37.7766 86.5576 36.7036C86.453 36.1705 85.6381 36.3899 85.7427 36.9288ZM57.9505 35.2351C55.7529 35.9771 53.9298 37.5444 52.8665 39.6059C52.621 40.0882 53.3488 40.5167 53.5928 40.0315C54.5416 38.1604 56.1817 36.7324 58.1655 36.05C58.6899 35.8757 58.4676 35.0593 57.9505 35.2351ZM86.3615 27.811C85.6296 27.5617 84.8539 27.4671 84.0836 27.5331C83.3132 27.5991 82.5649 27.8243 81.8861 28.1944C81.4068 28.4515 81.8324 29.1807 82.3117 28.9207C82.8937 28.6078 83.5345 28.4196 84.1932 28.368C84.852 28.3165 85.5143 28.4028 86.1378 28.6215C86.652 28.8016 86.8699 27.9867 86.3615 27.811ZM83.8907 44.7596C83.8459 44.699 83.7843 44.6529 83.7136 44.6271C83.6428 44.6012 83.5659 44.5968 83.4927 44.6144C83.4406 44.623 83.3911 44.6428 83.3474 44.6725C77.4931 47.9195 70.9042 49.6119 64.2097 49.588C64.126 49.5891 64.0445 49.6147 63.9753 49.6617C63.906 49.7087 63.8521 49.775 63.8203 49.8524C63.7884 49.9297 63.7799 50.0148 63.796 50.0969C63.812 50.179 63.8518 50.2546 63.9105 50.3143C66.1692 53.1381 69.285 55.8036 73.0457 56.0825C74.8535 56.1265 76.6373 55.6616 78.1937 54.7409C79.7501 53.8202 81.0164 52.4806 81.8484 50.875C82.8263 49.0729 83.5479 47.1432 83.9924 45.1417V45.1315C84.0043 45.0009 83.9676 44.8706 83.8892 44.7655L83.8907 44.7596ZM42.2176 53.1149C41.2082 53.2048 40.2316 53.5189 39.359 54.0344C39.2722 54.0955 39.2117 54.187 39.1893 54.2907C39.1669 54.3944 39.1843 54.5027 39.2381 54.5941C39.2918 54.6856 39.378 54.7535 39.4796 54.7843C39.5811 54.8152 39.6905 54.8067 39.786 54.7606C40.5278 54.3192 41.3583 54.0478 42.2176 53.9661C42.7537 53.908 42.7595 53.0626 42.2176 53.1149ZM85.9345 44.597C86.5122 45.6201 86.761 46.7964 86.6469 47.9659C86.5328 49.1353 86.0614 50.2413 85.2968 51.1336C84.938 51.5403 85.5335 52.1402 85.8938 51.7306C86.7876 50.7041 87.3416 49.4259 87.4794 48.0718C87.6173 46.7176 87.3323 45.354 86.6636 44.1684C86.6025 44.0817 86.511 44.0211 86.4073 43.9987C86.3036 43.9763 86.1953 43.9938 86.1039 44.0475C86.0124 44.1013 85.9445 44.1875 85.9137 44.289C85.8828 44.3905 85.8913 44.4999 85.9374 44.5955L85.9345 44.597ZM88.4576 43.1967C89.2268 44.6713 89.6399 46.3057 89.6639 47.9687C89.6878 49.6318 89.322 51.2773 88.5956 52.7735C88.3559 53.2587 89.0851 53.6872 89.3219 53.1991C90.1192 51.5721 90.5221 49.7803 90.4982 47.9686C90.4742 46.1569 90.0239 44.3764 89.1839 42.7711C88.934 42.2903 88.2034 42.7159 88.4576 43.1967Z" fill="#1D1D1B"/>
<path d="M99.4871 43.0428C99.2503 42.6564 99.0222 42.2642 98.7956 41.872C98.3841 41.1574 97.9822 40.4379 97.59 39.7135C97.1034 38.8202 96.6226 37.9225 96.1287 37.0321C96.0853 36.9624 96.0228 36.9066 95.9486 36.8715C95.8744 36.8365 95.7916 36.8235 95.7102 36.8342C95.6289 36.845 95.5523 36.8789 95.4897 36.932C95.4271 36.9852 95.3812 37.0552 95.3574 37.1337C94.5759 39.1586 93.6361 41.1182 92.856 43.1431C92.8415 43.1971 92.8379 43.2535 92.8452 43.309C92.8526 43.3645 92.8708 43.418 92.8989 43.4665C92.927 43.5149 92.9643 43.5574 93.0088 43.5913C93.0533 43.6253 93.104 43.6502 93.1582 43.6645C93.1924 43.673 93.2275 43.6779 93.2627 43.6791H99.121C99.2353 43.6741 99.3431 43.6245 99.4211 43.5408C99.4991 43.4571 99.5411 43.346 99.5379 43.2317C99.5351 43.1657 99.5178 43.1012 99.4871 43.0428ZM103.865 51.003C102.787 49.0143 101.536 47.1249 100.125 45.3568C100.065 45.2606 99.9695 45.1916 99.8593 45.1645C99.7492 45.1374 99.6329 45.1542 99.535 45.2115C99.4752 45.2471 99.4253 45.297 99.3897 45.3568C99.2895 45.5253 99.1965 45.6996 99.0992 45.871C98.8019 46.3852 98.5114 46.9023 98.2277 47.4224C97.5784 48.5844 96.9291 49.7596 96.2376 50.9085C96.199 50.9547 96.1721 51.0095 96.1592 51.0683C96.1169 51.1622 96.1134 51.269 96.1496 51.3653C96.1858 51.4617 96.2587 51.5398 96.3524 51.5825C96.3832 51.5987 96.4159 51.6109 96.4497 51.6189C96.4618 51.624 96.4745 51.6279 96.4875 51.6305C96.5058 51.638 96.5247 51.6438 96.5441 51.6479C96.8695 51.6784 97.1963 51.6915 97.5232 51.7118C97.8137 51.7292 98.1042 51.7525 98.3947 51.7612C100.099 51.8179 101.81 51.7481 103.506 51.645C103.619 51.6405 103.725 51.5926 103.803 51.5114C103.881 51.4301 103.925 51.3218 103.925 51.2092C103.922 51.1366 103.902 51.0657 103.865 51.003ZM102.808 62.6817C101.78 60.1419 100.478 57.7217 98.9264 55.4638C98.8949 55.4096 98.8507 55.3639 98.7975 55.3307C98.7443 55.2975 98.6838 55.2779 98.6213 55.2735C98.5384 55.245 98.4477 55.2497 98.3681 55.2865C98.2885 55.3233 98.2262 55.3894 98.1943 55.4711C97.0554 57.9201 95.4736 60.1339 94.3348 62.5887C94.3075 62.6377 94.2901 62.6917 94.2836 62.7474C94.2772 62.8031 94.2818 62.8596 94.2972 62.9136C94.3125 62.9675 94.3384 63.0179 94.3733 63.0619C94.4081 63.1058 94.4513 63.1425 94.5004 63.1698C94.5611 63.2041 94.6296 63.2225 94.6994 63.2235H102.398C102.454 63.2229 102.51 63.2112 102.562 63.1889C102.614 63.1666 102.661 63.1343 102.7 63.0937C102.739 63.0532 102.77 63.0052 102.79 62.9527C102.811 62.9002 102.821 62.8441 102.819 62.7877C102.819 62.7521 102.815 62.7165 102.808 62.6817Z" fill="#AC47F5"/>
<path d="M130.272 106.221C127.645 107.622 125.094 109.161 122.63 110.832C122.178 111.131 122.6 111.863 123.055 111.558C126.761 108.964 130.735 106.775 134.908 105.03C135.106 104.953 135.3 104.869 135.501 104.795C135.8 104.684 136.102 104.584 136.404 104.482C139.915 103.373 143.53 102.626 147.193 102.254C150.165 101.894 153.148 101.611 156.123 101.297C156.658 101.24 156.663 100.395 156.123 100.451C151.271 100.963 146.372 101.323 141.575 102.253C140.116 102.534 138.674 102.896 137.254 103.336C136.778 103.483 136.304 103.638 135.833 103.804C133.924 104.476 132.065 105.284 130.272 106.221ZM177.425 98.537C181.597 98.5271 185.6 96.8866 188.579 93.9657C189.858 92.5317 190.826 90.8481 191.421 89.0212C192.016 87.1943 192.226 85.2638 192.037 83.3517C191.804 80.7695 191.116 78.2489 190.003 75.9073C189.776 75.4134 189.049 75.8419 189.277 76.3329C191.136 80.0174 191.667 84.2309 190.779 88.2614C190.317 89.9663 189.491 91.5506 188.357 92.9049C187.223 94.2592 185.809 95.3511 184.212 96.1054C182.08 97.0874 179.771 97.6251 177.425 97.6858C176.883 97.7148 176.88 98.5602 177.425 98.537Z" fill="#1D1D1B"/>
<path d="M137.253 125.317C135.109 125.52 132.967 125.751 130.829 126.008C130.807 126.013 130.785 126.02 130.764 126.03C130.703 126.037 130.645 126.057 130.593 126.089C130.541 126.122 130.497 126.166 130.465 126.217C128.377 129.38 127.738 133.463 127.432 137.165C127.319 138.515 127.263 139.868 127.262 141.223V141.836C127.276 144.215 127.539 146.586 128.046 148.911C128.197 149.611 128.4 150.298 128.653 150.968C128.732 151.271 128.867 151.558 129.051 151.812C129.277 151.955 129.533 152.044 129.799 152.072C130.077 152.147 130.356 152.217 130.633 152.301C132.574 152.842 134.504 153.417 136.443 153.992C136.534 153.816 136.618 153.639 136.709 153.465C136.743 153.412 136.788 153.367 136.842 153.336C136.897 153.304 136.957 153.285 137.02 153.282C137.074 153.268 137.13 153.264 137.186 153.272L138.991 153.739L150.587 156.742C149.271 154.506 148.852 151.854 149.415 149.321C149.678 148.087 150.246 146.554 151.693 146.401C152.158 146.372 152.622 146.465 153.04 146.673C153.457 146.88 153.813 147.194 154.071 147.582C153.922 142.292 154.483 137.006 155.74 131.865C156.239 129.962 157.192 126.781 159.006 125.259C159.467 124.859 160.023 124.586 160.62 124.466C152.821 124.208 145.013 124.493 137.253 125.317Z" fill="#FF8684"/>
<path d="M179.318 63.0926C177.018 60.8002 174.362 58.8959 171.452 57.4537C168.72 56.2057 165.876 55.2165 162.959 54.4991C161.089 53.9965 159.211 53.5186 157.343 53.0044C157.236 52.9784 157.124 52.9951 157.029 53.0509C156.934 53.1067 156.865 53.1972 156.836 53.3032C156.807 53.4093 156.82 53.5225 156.873 53.6189C156.926 53.7152 157.014 53.7871 157.12 53.8193C163.021 55.4419 169.186 56.6214 174.353 60.0901C175.915 61.1545 177.377 62.3593 178.721 63.6896C179.109 64.0702 179.707 63.4732 179.318 63.0926ZM194.419 68.2957L200.61 60.3966C200.941 59.9739 200.347 59.3798 200.011 59.7996L193.822 67.6973C193.489 68.1214 194.083 68.7228 194.419 68.2957ZM207.71 68.9378L197.164 70.3729C196.628 70.447 196.856 71.2604 197.389 71.1878L207.935 69.7527C208.471 69.6786 208.243 68.8651 207.71 68.9378ZM275.961 176.615C275.55 173.259 274.505 170.011 272.883 167.045C271.034 163.328 268.606 159.939 266.701 156.255C265.948 154.71 265.302 153.115 264.766 151.482C263.129 146.867 261.728 142.165 260.375 137.459C260.212 137.838 260.031 138.209 259.831 138.57C257.586 142.637 253.043 145.426 248.346 144.113C248.166 144.608 247.973 145.099 247.758 145.58C247.734 146.353 247.71 147.126 247.698 147.904C247.647 151.328 247.749 154.752 247.726 158.174C247.717 161.475 247.47 164.77 246.988 168.036C246.941 168.341 246.895 168.643 246.842 168.941C250.53 170.632 253.717 173.249 256.095 176.536C259.105 180.543 261.612 184.903 263.562 189.519C264.509 191.675 265.389 193.86 266.199 196.07C266.316 196.383 266.439 196.691 266.552 197.003C267.576 195.617 268.731 194.327 269.755 192.936C271.334 190.828 272.668 188.548 273.731 186.139C274.377 184.656 274.915 183.129 275.339 181.568C275.83 179.965 276.04 178.289 275.961 176.615ZM256.161 121.947C255.659 119.523 254.898 117.16 253.892 114.899C252.235 111.618 249.959 108.687 247.191 106.269C245.911 105.092 244.509 104.055 243.009 103.175C241.501 102.337 239.905 101.667 238.25 101.179C234.849 100.153 231.286 99.7665 227.744 100.039C226.997 100.098 226.254 100.197 225.516 100.329C220.4 96.6878 213.33 96.3595 207.462 98.1811C204.433 99.2838 201.663 100.999 199.327 103.22C195.982 106.224 192.965 109.575 190.328 113.217C187.069 117.634 184.178 122.311 181.683 127.201C180.146 130.197 178.743 133.26 177.477 136.381C177.575 136.42 177.676 136.452 177.768 136.5C178.516 136.898 179.091 137.559 179.381 138.356C179.672 139.152 179.657 140.028 179.34 140.814C179.048 141.648 178.556 142.397 177.907 142.995C177.257 143.593 176.47 144.022 175.615 144.244C175.569 144.253 175.522 144.244 175.47 144.257C175.173 144.297 174.872 144.3 174.574 144.267C174.232 145.327 173.907 146.393 173.599 147.463C173.859 147.603 174.102 147.771 174.325 147.964C174.6 148.199 174.84 148.471 175.039 148.773C175.53 149.643 175.657 150.672 175.392 151.635C175.126 152.598 174.49 153.417 173.622 153.912C173.338 154.073 173.034 154.196 172.719 154.28C172.426 154.354 172.127 154.396 171.825 154.405C171.167 157.384 170.642 160.392 170.251 163.418C169.818 166.764 169.567 170.13 169.498 173.503C169.465 175.194 169.48 176.885 169.543 178.575C169.564 180.105 169.703 181.631 169.962 183.139C170.43 185.352 171.381 187.434 172.746 189.237C174.112 191.04 175.858 192.519 177.861 193.569C178.173 193.745 178.493 193.905 178.811 194.064C178.99 193.835 179.17 193.61 179.345 193.38C180.808 191.461 182.197 189.483 183.626 187.542C187.948 181.675 192.65 175.852 198.798 171.805C200.678 170.563 202.691 169.536 204.8 168.743C204.519 167.414 204.354 166.038 204.199 164.711C203.985 162.836 203.868 160.951 203.848 159.064C203.832 157.884 203.848 156.704 203.874 155.523C203.477 155.263 203.079 155.006 202.701 154.717C198.959 151.756 196.247 147.689 194.95 143.096C193.586 138.442 193.453 133.513 194.563 128.791C195.118 126.372 196.115 124.075 197.504 122.018C198.925 119.976 200.638 118.154 202.588 116.61C204.567 114.977 206.761 113.623 209.107 112.585C211.375 111.613 213.762 110.951 216.206 110.615C220.771 110.005 225.412 110.34 229.841 111.6C231.757 112.129 233.616 112.846 235.39 113.741C237.128 114.643 238.74 115.77 240.184 117.094C244.284 120.677 247.27 125.363 248.785 130.594C250.374 128.608 252.365 126.631 255.031 126.527C255.532 126.509 256.033 126.565 256.518 126.692C256.852 126.78 257.177 126.901 257.488 127.051C257.038 125.341 256.585 123.646 256.161 121.947ZM183.291 149.691C182.968 150.127 182.235 149.7 182.564 149.264C183.833 147.369 184.361 145.073 184.047 142.814C183.747 140.368 182.84 138.036 181.41 136.029C181.103 135.578 181.835 135.158 182.136 135.602C183.643 137.739 184.592 140.218 184.896 142.814C185.217 145.225 184.649 147.669 183.298 149.691H183.291ZM187.518 151.165C187.227 151.624 186.501 151.2 186.791 150.738C187.506 149.618 188.041 148.393 188.376 147.107C188.928 144.834 188.877 142.456 188.227 140.208C187.577 137.961 186.351 135.923 184.671 134.295C184.283 133.913 184.881 133.316 185.269 133.698C186.299 134.706 187.176 135.86 187.872 137.122C189.064 139.282 189.66 141.721 189.599 144.188C189.537 146.655 188.82 149.061 187.522 151.16L187.518 151.165ZM191.96 152.644C191.697 153.12 190.968 152.693 191.233 152.217C192.017 150.807 192.59 149.29 192.936 147.714C193.502 144.913 193.377 142.016 192.573 139.274C191.768 136.532 190.307 134.027 188.317 131.977C187.94 131.583 188.537 130.986 188.914 131.38C190.121 132.635 191.151 134.049 191.977 135.582C193.392 138.203 194.132 141.135 194.13 144.114C194.127 147.093 193.382 150.024 191.963 152.643L191.96 152.644ZM200.421 75.7111C199.892 75.5848 199.667 76.3997 200.196 76.5246L207.258 78.1979C207.787 78.3243 208.012 77.5094 207.482 77.3845L200.421 75.7111ZM164.378 133.299C163.85 132.745 163.522 132.03 163.447 131.268C163.373 130.506 163.556 129.741 163.967 129.095C164.022 128.995 164.089 128.905 164.15 128.804C163.94 128.168 163.677 127.549 163.366 126.955C163.151 126.532 162.879 126.141 162.557 125.793C162.445 125.669 162.316 125.56 162.174 125.472C162.066 125.389 161.94 125.334 161.806 125.311C160.251 124.964 159.067 126.217 158.306 127.514C157.298 129.399 156.589 131.428 156.204 133.53C155.676 136.015 155.32 138.535 155.138 141.07C155.222 141.047 155.311 141.051 155.392 141.083H155.408C155.425 141.086 155.441 141.091 155.456 141.098C156.242 141.566 156.903 142.216 157.385 142.993C157.866 143.771 158.154 144.652 158.223 145.564C158.329 146.516 158.089 147.473 157.548 148.263C157.007 149.053 156.201 149.622 155.276 149.868C155.224 149.879 155.171 149.879 155.119 149.868C155.375 150.849 155.748 151.795 156.231 152.686C156.519 153.267 156.943 153.77 157.466 154.153C157.989 154.535 158.597 154.787 159.237 154.887C159.967 154.873 160.681 154.676 161.315 154.316C161.949 153.955 162.483 153.442 162.869 152.823C163.652 151.68 164.219 150.403 164.541 149.056C165.078 146.2 165.362 143.301 165.388 140.394C165.394 140.301 165.431 140.212 165.491 140.14C165.552 140.068 165.633 140.017 165.725 139.995C165.717 137.976 165.575 135.96 165.299 133.96C164.963 133.783 164.653 133.561 164.378 133.299ZM163.032 142.267C162.599 142.654 162.076 142.925 161.511 143.057C160.946 143.189 160.357 143.177 159.798 143.022C159.27 142.858 158.781 142.59 158.358 142.234C157.936 141.878 157.589 141.44 157.339 140.948C156.839 139.736 156.722 138.4 157.002 137.119C157.106 136.42 157.389 135.761 157.824 135.204C158.259 134.648 158.831 134.214 159.484 133.945C160.371 133.612 161.337 133.551 162.259 133.769C162.772 133.924 163.249 134.181 163.661 134.525C164.072 134.869 164.409 135.293 164.653 135.771C165.152 136.878 165.264 138.122 164.97 139.3C164.676 140.479 163.993 141.524 163.032 142.267ZM190.715 72.0187C190.428 70.6018 189.621 69.3439 188.452 68.4933C187.309 67.6298 186.059 66.9202 184.732 66.3827C183.341 65.85 182.063 65.0579 180.968 64.0484C180.886 63.971 180.776 63.9294 180.664 63.9326C180.551 63.9359 180.444 63.9838 180.367 64.0658C180.318 64.1179 180.284 64.1811 180.265 64.2497C180.247 64.3183 180.246 64.3903 180.262 64.4595C180.681 66.9341 181.413 69.3454 182.441 71.6352C183.218 73.3187 184.448 75.5833 186.443 76.0118C186.942 76.0697 187.449 76.0286 187.932 75.8909C188.416 75.7532 188.868 75.5215 189.262 75.2091C189.657 74.8967 189.986 74.5097 190.23 74.0702C190.475 73.6307 190.631 73.1473 190.689 72.6476C190.712 72.4389 190.719 72.2285 190.709 72.0187H190.715ZM187.229 70.2364L188.356 71.0803C188.792 71.4028 188.364 72.1349 187.93 71.8066L186.807 70.9612C186.372 70.6431 186.791 69.9095 187.226 70.2349L187.229 70.2364ZM175.301 97.7453C174.466 97.7968 173.628 97.6815 172.838 97.4059C172.047 97.1303 171.319 96.7 170.697 96.1402C169.503 95.1855 168.144 94.4574 166.688 93.9918C166.053 93.7918 165.377 93.7567 164.725 93.8898C164.072 94.023 163.465 94.32 162.959 94.753C162.138 95.6257 161.408 96.5796 160.78 97.6C160.369 98.2079 159.916 98.786 159.423 99.3301C159.074 99.7532 158.618 100.075 158.103 100.263C158.04 100.272 157.98 100.299 157.932 100.34C157.873 100.379 157.826 100.433 157.797 100.497C157.767 100.562 157.757 100.633 157.766 100.703V100.756C157.766 100.775 157.766 100.788 157.778 100.804C157.801 100.896 157.856 100.976 157.933 101.03L157.988 101.059C158.008 101.072 158.03 101.084 158.052 101.093C159.655 101.365 161.193 101.935 162.586 102.774C163.211 103.273 163.809 103.807 164.375 104.372C164.8 104.871 165.339 105.261 165.947 105.508C168.906 106.477 170.97 103.352 172.54 101.41C173.005 100.829 173.481 100.266 173.993 99.7353C174.406 99.241 174.923 98.8442 175.508 98.5733C175.616 98.5434 175.708 98.4719 175.763 98.3743C175.818 98.2768 175.832 98.1613 175.803 98.0532C175.773 97.9452 175.701 97.8534 175.604 97.7981C175.506 97.7428 175.391 97.7285 175.283 97.7584L175.301 97.7453ZM167.198 96.1082C166.117 96.2035 165.112 96.7043 164.385 97.51C164.018 97.9124 163.421 97.3124 163.788 96.913C164.675 95.9513 165.893 95.362 167.198 95.2643C167.741 95.2178 167.736 96.0632 167.198 96.1082ZM121.052 112.123C118.375 112.95 115.76 113.969 113.23 115.173C112.002 115.752 110.853 116.484 109.809 117.352C108.999 117.983 108.42 118.864 108.163 119.858C108.098 120.476 108.19 121.101 108.432 121.673C108.674 122.246 109.057 122.748 109.546 123.132C110.276 123.857 111.23 124.312 112.252 124.425C113.217 124.455 114.165 124.162 114.944 123.591C116.982 121.964 118.577 119.85 119.582 117.444C120.344 115.889 121.008 114.288 121.571 112.65C121.599 112.541 121.583 112.425 121.527 112.328C121.47 112.231 121.377 112.159 121.268 112.13C121.198 112.109 121.124 112.106 121.052 112.123ZM113.307 117.239C112.005 117.92 110.949 118.992 110.287 120.304C110.041 120.789 109.312 120.36 109.561 119.878C110.293 118.438 111.454 117.261 112.884 116.51C113.366 116.256 113.792 116.985 113.307 117.239Z" fill="#1D1D1B"/>
<path d="M158.224 145.569C158.154 144.657 157.866 143.775 157.385 142.998C156.903 142.221 156.242 141.57 155.456 141.102C155.441 141.096 155.425 141.091 155.408 141.087H155.392C155.311 141.056 155.222 141.051 155.138 141.074L155.102 141.087C155.031 141.11 154.969 141.151 154.921 141.208C154.874 141.265 154.844 141.334 154.835 141.407V141.44C154.834 141.451 154.834 141.462 154.835 141.472L154.761 148.814C154.899 149.17 155.021 149.527 155.132 149.886C155.184 149.897 155.238 149.897 155.289 149.886C156.214 149.637 157.019 149.064 157.558 148.272C158.096 147.48 158.333 146.52 158.224 145.569ZM164.653 135.771C164.41 135.293 164.072 134.869 163.661 134.525C163.249 134.181 162.772 133.924 162.259 133.769C161.337 133.551 160.371 133.613 159.484 133.945C158.831 134.214 158.259 134.648 157.824 135.205C157.389 135.761 157.106 136.42 157.002 137.119C156.722 138.4 156.839 139.736 157.339 140.948C157.589 141.441 157.936 141.878 158.358 142.234C158.781 142.591 159.27 142.858 159.798 143.022C160.357 143.177 160.946 143.189 161.511 143.057C162.076 142.925 162.599 142.654 163.032 142.267C163.993 141.524 164.676 140.479 164.97 139.301C165.264 138.122 165.152 136.878 164.653 135.771ZM269.314 205.395C268.468 202.572 267.548 199.773 266.554 196.997C266.441 196.685 266.317 196.377 266.201 196.065C265.39 193.854 264.51 191.669 263.563 189.514C261.614 184.897 259.106 180.537 256.097 176.53C253.719 173.243 250.531 170.627 246.844 168.935C246.794 169.219 246.736 169.498 246.67 169.774C246.525 170.441 246.272 171.079 245.92 171.663C245.29 172.625 244.494 173.467 243.568 174.15C241.207 175.843 238.561 177.1 235.756 177.86C232.552 178.818 229.254 179.431 225.919 179.687C222.536 180.055 219.113 179.797 215.823 178.927C213.12 178.161 210.621 176.803 208.509 174.95C206.984 173.688 205.83 172.036 205.168 170.171C205.107 169.971 205.063 169.763 205.011 169.559C204.941 169.286 204.866 169.016 204.808 168.739C202.699 169.532 200.686 170.559 198.806 171.801C192.657 175.848 187.955 181.671 183.633 187.538C182.204 189.479 180.815 191.46 179.353 193.376C179.177 193.605 178.997 193.831 178.818 194.06C178.576 194.37 178.339 194.685 178.092 194.991C176.212 197.596 173.607 199.59 170.601 200.723C165.226 202.466 160.687 198.531 158.98 193.668C158.181 191.138 157.702 188.518 157.555 185.869C157.302 183.165 157.234 180.448 157.352 177.735C157.427 176.182 157.59 174.634 157.84 173.099V173.043C157.809 173.121 157.755 173.188 157.686 173.235C157.617 173.283 157.535 173.309 157.451 173.31C155.399 173.235 153.346 173.224 151.293 173.28C144.051 173.464 136.846 174.296 129.632 174.922C129.588 174.929 129.542 174.927 129.499 174.916C129.455 174.905 129.414 174.885 129.378 174.858C129.342 174.831 129.312 174.797 129.289 174.758C129.266 174.719 129.251 174.677 129.245 174.632C129.224 174.576 129.217 174.516 129.223 174.456C129.223 174.469 129.202 174.475 129.2 174.49C126.419 185.763 124.39 197.901 127.7 209.279C129.107 214.272 131.53 218.921 134.818 222.933C138.352 227.116 142.922 230.299 148.071 232.163C154.384 234.289 161.023 235.281 167.681 235.091H275.579C275.692 235.087 275.799 235.04 275.878 234.958C275.956 234.877 276 234.768 276 234.655C275.999 234.623 275.994 234.59 275.987 234.558C274.36 224.71 272.131 214.97 269.314 205.395ZM245.667 226.925L245.958 205.717C245.964 205.609 246.011 205.508 246.09 205.434C246.168 205.36 246.272 205.319 246.38 205.319C246.488 205.319 246.591 205.36 246.67 205.434C246.748 205.508 246.795 205.609 246.802 205.717L246.718 211.79L246.427 232.998C246.427 233.11 246.382 233.218 246.303 233.297C246.224 233.376 246.116 233.421 246.004 233.421C245.892 233.421 245.785 233.376 245.705 233.297C245.626 233.218 245.582 233.11 245.582 232.998L245.667 226.925ZM178.211 136.773C178.073 136.669 177.928 136.575 177.775 136.493C177.681 136.445 177.579 136.413 177.485 136.374C176.748 136.102 175.954 136.022 175.178 136.142C174.403 136.262 173.67 136.578 173.05 137.059C172.342 137.655 171.825 138.446 171.563 139.333C171.301 140.22 171.306 141.165 171.577 142.049C171.903 142.79 172.46 143.405 173.164 143.801C173.869 144.198 174.684 144.356 175.486 144.25C175.532 144.242 175.579 144.25 175.631 144.237C176.486 144.015 177.273 143.586 177.923 142.988C178.572 142.39 179.064 141.641 179.356 140.807C179.643 140.104 179.686 139.324 179.479 138.593C179.271 137.862 178.825 137.221 178.211 136.773ZM168.233 126.899C167.607 126.789 166.963 126.835 166.358 127.031C165.752 127.228 165.205 127.569 164.762 128.026C164.531 128.265 164.326 128.527 164.15 128.809C164.089 128.905 164.022 128.995 163.967 129.099C163.556 129.745 163.373 130.51 163.447 131.272C163.522 132.034 163.85 132.749 164.378 133.303C164.65 133.569 164.959 133.796 165.295 133.976C165.578 134.125 165.876 134.243 166.185 134.329C166.8 134.525 167.454 134.566 168.089 134.448C168.724 134.33 169.32 134.057 169.823 133.653C170.327 133.249 170.722 132.726 170.975 132.132C171.227 131.537 171.328 130.89 171.269 130.247C171.232 129.423 170.909 128.637 170.354 128.026C169.8 127.415 169.05 127.016 168.233 126.899Z" fill="#8DAAFE"/>
<path d="M169.437 147.785C169.449 147.454 169.464 147.121 169.469 146.793C169.391 145.664 169.054 144.569 168.483 143.592C167.913 142.614 167.125 141.782 166.181 141.158C166.193 144.082 165.862 146.997 165.194 149.843C164.452 152.287 162.885 155.24 160.097 155.693C157.346 156.14 155.545 153.694 154.692 151.412C154.209 150.121 154.089 148.285 152.792 147.505C152.503 147.29 152.14 147.2 151.783 147.253C151.427 147.305 151.106 147.497 150.891 147.787C150.529 148.36 150.293 149.003 150.201 149.675C149.911 150.974 149.917 152.321 150.219 153.617C150.521 154.913 151.11 156.124 151.944 157.162C151.974 157.194 151.998 157.231 152.017 157.27C152.445 157.811 152.977 158.261 153.58 158.595C154.183 158.929 154.846 159.14 155.532 159.217C156.068 159.275 156.071 160.12 155.532 160.062C153.914 159.895 152.428 159.093 151.401 157.833L149.729 157.397L137.29 154.175C136.672 155.363 136.095 156.574 135.56 157.806C133.331 163.057 131.534 168.481 130.186 174.024C132.033 173.863 133.881 173.694 135.727 173.519C142.823 172.711 149.964 172.356 157.105 172.456C157.555 169.82 158.387 167.263 159.574 164.867C160.723 162.595 162.302 160.566 164.223 158.894C165.22 158.192 166.171 157.427 167.07 156.602C167.778 155.767 168.299 154.788 168.596 153.733C168.666 153.505 168.71 153.267 168.769 153.035C168.363 152.533 168.069 151.951 167.905 151.326C167.792 150.651 167.876 149.958 168.148 149.329C168.42 148.701 168.868 148.165 169.437 147.785Z" fill="#FFCEB6"/>
<path d="M129.627 174.911C136.84 174.288 144.045 173.458 151.287 173.268C153.34 173.213 155.394 173.223 157.446 173.298C157.53 173.297 157.612 173.271 157.681 173.223C157.75 173.176 157.803 173.109 157.834 173.031C157.842 173.018 157.848 173.004 157.853 172.989C158.54 167.763 161.046 162.946 164.933 159.386C165.964 158.679 166.932 157.884 167.824 157.008C168.522 156.136 169.048 155.138 169.372 154.069C169.413 153.946 169.443 153.821 169.479 153.696C169.214 153.504 168.976 153.278 168.769 153.025C168.71 153.257 168.666 153.495 168.596 153.723C168.299 154.778 167.778 155.756 167.07 156.592C166.171 157.417 165.22 158.182 164.223 158.884C162.302 160.556 160.723 162.585 159.574 164.857C158.387 167.253 157.555 169.81 157.105 172.446C149.964 172.346 142.823 172.701 135.727 173.509C133.882 173.681 132.034 173.85 130.186 174.014C131.534 168.471 133.331 163.047 135.56 157.796C136.096 156.569 136.673 155.359 137.29 154.165L149.729 157.387L151.401 157.823C151.343 157.753 151.282 157.686 151.225 157.613C150.897 157.178 151.63 156.759 151.951 157.188L152.012 157.26C151.994 157.221 151.969 157.184 151.94 157.151C151.106 156.114 150.517 154.903 150.215 153.607C149.913 152.311 149.907 150.964 150.197 149.665C150.289 148.993 150.524 148.35 150.887 147.777C151.102 147.487 151.423 147.295 151.779 147.243C152.135 147.19 152.498 147.28 152.788 147.495C154.085 148.275 154.204 150.109 154.688 151.402C155.541 153.684 157.342 156.13 160.093 155.683C162.88 155.23 164.451 152.277 165.19 149.833C165.858 146.987 166.189 144.072 166.176 141.148C167.121 141.772 167.909 142.604 168.479 143.581C169.049 144.559 169.387 145.654 169.465 146.783C169.465 147.111 169.445 147.444 169.433 147.775C169.698 147.574 169.985 147.405 170.289 147.27L170.303 146.979C170.256 145.659 169.889 144.371 169.235 143.223C168.581 142.076 167.658 141.104 166.547 140.392C166.371 140.271 166.195 140.143 166.014 140.039C165.925 139.99 165.821 139.977 165.723 140.004C165.632 140.026 165.55 140.077 165.49 140.149C165.429 140.22 165.393 140.31 165.386 140.403C165.36 143.31 165.077 146.208 164.539 149.065C164.218 150.412 163.651 151.689 162.867 152.831C162.482 153.451 161.948 153.964 161.314 154.325C160.679 154.685 159.965 154.881 159.236 154.896C158.595 154.796 157.988 154.544 157.465 154.161C156.941 153.778 156.518 153.276 156.229 152.695C155.747 151.804 155.374 150.857 155.118 149.877C155.006 149.516 154.882 149.158 154.746 148.805C154.733 148.772 154.724 148.737 154.711 148.703C154.549 148.301 154.332 147.922 154.066 147.579C153.808 147.191 153.453 146.877 153.036 146.67C152.618 146.462 152.153 146.369 151.688 146.398C150.236 146.551 149.674 148.084 149.411 149.318C148.847 151.851 149.266 154.503 150.583 156.739L138.987 153.735L137.181 153.269C137.126 153.261 137.07 153.265 137.016 153.279C136.953 153.282 136.892 153.301 136.838 153.333C136.784 153.364 136.738 153.409 136.705 153.462C136.613 153.636 136.529 153.813 136.439 153.989C134.014 158.876 132.06 163.983 130.606 169.241C130.109 170.944 129.646 172.655 129.218 174.376C129.211 174.459 129.217 174.543 129.237 174.625C129.244 174.669 129.259 174.712 129.283 174.75C129.306 174.788 129.336 174.822 129.373 174.848C129.409 174.875 129.45 174.894 129.493 174.905C129.537 174.915 129.582 174.917 129.627 174.911Z" fill="#1D1D1B"/>
<path d="M204.77 161.277C204.862 163.203 205.067 165.123 205.386 167.025C205.521 168.308 205.829 169.566 206.302 170.767C207.261 172.626 208.671 174.215 210.403 175.389C212.792 177.064 215.528 178.181 218.408 178.654C221.715 179.131 225.074 179.105 228.373 178.576C231.547 178.175 234.665 177.418 237.669 176.32C240.171 175.511 242.456 174.144 244.351 172.322C245.046 171.617 245.555 170.75 245.833 169.799C246.013 169.014 246.149 168.22 246.241 167.42C246.368 166.548 246.475 165.677 246.562 164.805C247.15 158.995 246.821 153.142 246.886 147.31C246.841 147.392 246.799 147.474 246.751 147.554C244.04 151.931 240.019 155.341 235.259 157.303C229.733 159.52 223.754 160.373 217.829 159.789C213.232 159.553 208.749 158.271 204.722 156.042C204.675 157.787 204.691 159.533 204.77 161.277Z" fill="#FFCEB6"/>
<path d="M247.726 158.168C247.749 154.746 247.647 151.322 247.698 147.899C247.71 147.126 247.734 146.353 247.758 145.574C247.493 146.166 247.198 146.743 246.876 147.304C246.81 153.137 247.14 158.992 246.552 164.799C246.465 165.671 246.358 166.542 246.231 167.414C246.139 168.214 246.003 169.008 245.823 169.793C245.545 170.744 245.036 171.611 244.341 172.316C242.446 174.138 240.161 175.505 237.659 176.314C234.655 177.413 231.536 178.169 228.363 178.57C225.064 179.099 221.704 179.126 218.398 178.648C215.518 178.175 212.782 177.059 210.393 175.383C208.661 174.209 207.251 172.62 206.292 170.761C205.819 169.561 205.511 168.302 205.376 167.019C205.057 165.117 204.852 163.197 204.76 161.271C204.673 159.528 204.674 157.785 204.706 156.042C204.424 155.872 204.146 155.696 203.872 155.513C203.842 156.693 203.834 157.874 203.846 159.054C203.867 160.941 203.984 162.826 204.198 164.701C204.353 166.028 204.517 167.404 204.799 168.733C204.858 169.01 204.933 169.281 205.002 169.554C205.055 169.757 205.098 169.965 205.159 170.165C205.821 172.031 206.975 173.682 208.5 174.944C210.612 176.797 213.111 178.155 215.814 178.921C219.104 179.791 222.527 180.049 225.911 179.681C229.246 179.425 232.543 178.813 235.748 177.854C238.552 177.094 241.198 175.837 243.56 174.144C244.485 173.461 245.281 172.619 245.911 171.657C246.263 171.073 246.517 170.435 246.661 169.769C246.728 169.493 246.786 169.213 246.835 168.929C246.886 168.639 246.932 168.329 246.98 168.024C247.465 164.761 247.714 161.467 247.726 158.168Z" fill="#1D1D1B"/>
<path d="M175.041 148.763C174.843 148.461 174.603 148.189 174.328 147.954C174.105 147.761 173.862 147.593 173.602 147.453C172.782 146.993 171.819 146.856 170.903 147.068C170.693 147.122 170.487 147.193 170.289 147.28C169.985 147.415 169.698 147.585 169.433 147.785C168.865 148.164 168.418 148.699 168.147 149.325C167.875 149.951 167.789 150.643 167.901 151.317C168.065 151.941 168.359 152.523 168.765 153.025C168.971 153.278 169.21 153.504 169.475 153.696C169.858 153.976 170.292 154.178 170.753 154.29C171.106 154.371 171.468 154.406 171.83 154.395C172.131 154.386 172.431 154.344 172.723 154.27C173.281 154.122 173.798 153.849 174.234 153.47C174.67 153.092 175.013 152.619 175.237 152.087C175.462 151.555 175.561 150.979 175.528 150.403C175.495 149.827 175.331 149.266 175.047 148.763H175.041Z" fill="#8DAAFE"/>
<path d="M248.968 131.705C248.906 131.8 248.81 131.867 248.7 131.892C248.59 131.917 248.474 131.898 248.378 131.84C248.29 131.786 248.226 131.702 248.196 131.603C247.889 130.262 247.467 128.95 246.935 127.682C245.817 125.136 244.321 122.775 242.496 120.677C240.942 118.79 239.138 117.124 237.133 115.724C233.967 113.705 230.425 112.345 226.721 111.725C222.248 110.844 217.637 110.957 213.212 112.056C208.441 113.34 204.109 115.901 200.685 119.464C198.997 121.17 197.616 123.153 196.602 125.328C195.65 127.516 195.053 129.841 194.831 132.216C194.305 136.827 194.993 141.496 196.827 145.759C198.716 150.159 202.067 153.771 206.314 155.984C211.205 158.261 216.573 159.325 221.963 159.086C227.557 159.137 233.068 157.726 237.95 154.993C242.452 152.438 245.898 148.365 247.672 143.502C247.705 143.396 247.778 143.308 247.874 143.254C247.97 143.2 248.083 143.185 248.19 143.211C249.813 143.698 251.541 143.708 253.169 143.238C254.796 142.769 256.254 141.841 257.368 140.564C258.57 139.385 259.452 137.919 259.933 136.305C260.413 134.691 260.476 132.981 260.115 131.336C259.796 130.195 259.112 129.189 258.168 128.474C257.223 127.758 256.07 127.372 254.885 127.375C252.319 127.535 250.416 129.81 248.968 131.705ZM200.963 123.376C201.818 122.471 202.906 121.82 204.108 121.494C205.309 121.169 206.577 121.181 207.772 121.53C207.878 121.562 207.966 121.634 208.019 121.73C208.072 121.827 208.085 121.94 208.056 122.046C208.027 122.152 207.958 122.243 207.863 122.298C207.768 122.354 207.656 122.371 207.549 122.345C206.498 122.035 205.381 122.023 204.324 122.31C203.267 122.598 202.31 123.173 201.561 123.973C201.188 124.371 200.594 123.773 200.963 123.376ZM207.703 135.649C207.489 136.036 207.189 136.369 206.824 136.62C206.46 136.871 206.042 137.033 205.604 137.094C205.166 137.154 204.719 137.112 204.3 136.97C203.882 136.828 203.502 136.59 203.191 136.275C202.781 135.817 202.468 135.282 202.27 134.701C202.072 134.12 201.994 133.504 202.039 132.892C202.045 132.784 202.093 132.683 202.171 132.609C202.249 132.535 202.353 132.494 202.461 132.494C202.569 132.494 202.673 132.535 202.751 132.609C202.829 132.683 202.877 132.784 202.883 132.892C202.883 134.109 203.174 135.613 204.463 136.088C204.875 136.295 205.348 136.344 205.793 136.224C206.237 136.104 206.622 135.824 206.873 135.438C207.191 134.629 207.316 133.757 207.238 132.89C207.238 132.778 207.282 132.671 207.362 132.592C207.441 132.512 207.548 132.468 207.661 132.468C207.773 132.468 207.88 132.512 207.959 132.592C208.039 132.671 208.083 132.778 208.083 132.89C208.144 133.826 208.014 134.765 207.703 135.649ZM231.189 141.927C230.764 143.16 230.152 144.321 229.375 145.37C228.308 146.76 226.917 147.87 225.323 148.601C223.73 149.332 221.982 149.663 220.231 149.565C215.696 149.386 212.113 145.653 209.883 142.027C209.855 141.979 209.837 141.925 209.83 141.869C209.823 141.814 209.827 141.757 209.842 141.703C209.857 141.649 209.882 141.599 209.917 141.555C209.951 141.511 209.994 141.474 210.043 141.446C210.105 141.411 210.176 141.392 210.248 141.391C217.092 141.506 223.937 141.276 230.783 141.391C230.87 141.393 230.954 141.423 231.022 141.477C231.102 141.517 231.164 141.585 231.195 141.669C231.226 141.752 231.224 141.845 231.189 141.927ZM233.069 121.839C234.248 121.467 235.512 121.466 236.691 121.837C237.87 122.208 238.907 122.933 239.659 123.914C239.991 124.349 239.257 124.765 238.933 124.339C238.276 123.518 237.385 122.917 236.378 122.616C235.37 122.314 234.295 122.327 233.296 122.653C232.774 122.818 232.555 122.008 233.069 121.839ZM239.991 135.493C239.777 135.881 239.476 136.213 239.112 136.464C238.748 136.714 238.33 136.876 237.892 136.937C237.454 136.998 237.007 136.956 236.589 136.814C236.17 136.672 235.79 136.434 235.479 136.12C235.069 135.662 234.756 135.127 234.558 134.545C234.36 133.964 234.281 133.349 234.326 132.737C234.326 132.624 234.37 132.517 234.449 132.438C234.529 132.358 234.636 132.314 234.748 132.314C234.86 132.314 234.968 132.358 235.047 132.438C235.126 132.517 235.171 132.624 235.171 132.737C235.171 133.954 235.461 135.457 236.75 135.932C237.161 136.14 237.635 136.188 238.08 136.068C238.524 135.948 238.91 135.669 239.161 135.283C239.478 134.473 239.603 133.601 239.526 132.735C239.532 132.627 239.579 132.526 239.658 132.452C239.736 132.378 239.84 132.337 239.948 132.337C240.056 132.337 240.159 132.378 240.238 132.452C240.316 132.526 240.363 132.627 240.37 132.735C240.43 133.67 240.301 134.609 239.991 135.493ZM254.726 135.663L249.463 139.113C249.007 139.413 248.584 138.678 249.037 138.387L254.298 134.937C254.755 134.634 255.177 135.367 254.726 135.663Z" fill="#FFCEB6"/>
<path d="M255.031 126.512C252.367 126.615 250.375 128.592 248.785 130.579C247.27 125.349 244.284 120.663 240.184 117.079C238.74 115.756 237.128 114.629 235.39 113.727C233.616 112.832 231.757 112.114 229.841 111.585C225.412 110.326 220.771 109.991 216.206 110.601C213.762 110.936 211.375 111.599 209.107 112.57C206.761 113.608 204.567 114.962 202.588 116.595C200.638 118.139 198.925 119.961 197.504 122.003C196.116 124.061 195.118 126.357 194.563 128.777C193.453 133.498 193.586 138.427 194.95 143.082C196.247 147.675 198.959 151.741 202.701 154.702C203.079 154.993 203.479 155.247 203.874 155.509C204.15 155.69 204.424 155.87 204.707 156.037C208.735 158.266 213.217 159.548 217.814 159.785C223.74 160.368 229.719 159.515 235.245 157.298C240.005 155.337 244.026 151.926 246.736 147.55C246.784 147.47 246.826 147.387 246.871 147.306C247.194 146.744 247.488 146.167 247.753 145.576C247.968 145.095 248.161 144.604 248.341 144.109C253.039 145.416 257.581 142.63 259.827 138.566C260.027 138.204 260.208 137.833 260.37 137.453C260.572 136.991 260.744 136.516 260.883 136.031C261.36 134.421 261.376 132.71 260.93 131.092C260.656 130.219 260.21 129.409 259.618 128.71C259.026 128.012 258.301 127.439 257.484 127.025C257.173 126.874 256.848 126.754 256.514 126.666C256.03 126.542 255.53 126.49 255.031 126.512ZM260.115 131.326C260.476 132.971 260.413 134.681 259.933 136.295C259.452 137.909 258.57 139.375 257.368 140.554C256.254 141.83 254.797 142.759 253.169 143.228C251.542 143.697 249.814 143.688 248.192 143.201C248.084 143.174 247.971 143.189 247.874 143.243C247.778 143.297 247.705 143.386 247.672 143.491C245.898 148.354 242.452 152.428 237.95 154.983C233.068 157.716 227.557 159.127 221.963 159.076C216.573 159.315 211.205 158.251 206.314 155.973C202.067 153.761 198.716 150.149 196.827 145.749C194.994 141.485 194.306 136.817 194.831 132.206C195.053 129.831 195.65 127.506 196.602 125.318C197.616 123.143 198.998 121.159 200.687 119.454C204.11 115.891 208.441 113.33 213.212 112.046C217.637 110.947 222.248 110.834 226.721 111.715C230.425 112.335 233.967 113.695 237.133 115.714C239.138 117.114 240.942 118.78 242.496 120.667C244.321 122.764 245.817 125.126 246.935 127.671C247.467 128.94 247.889 130.252 248.196 131.593C248.221 131.671 248.267 131.741 248.329 131.794C248.392 131.846 248.468 131.88 248.549 131.891C248.63 131.901 248.713 131.889 248.787 131.854C248.861 131.819 248.924 131.764 248.968 131.695C250.42 129.807 252.32 127.525 254.89 127.355C256.076 127.353 257.23 127.74 258.175 128.458C259.119 129.175 259.802 130.183 260.119 131.326H260.115Z" fill="#1D1D1B"/>
<path d="M254.299 134.933L249.037 138.383C248.584 138.673 249.007 139.411 249.463 139.109L254.726 135.659C255.177 135.366 254.755 134.634 254.299 134.933ZM239.526 132.735C239.603 133.601 239.478 134.473 239.161 135.283C238.91 135.669 238.524 135.948 238.08 136.068C237.635 136.188 237.161 136.14 236.75 135.932C235.461 135.454 235.171 133.952 235.171 132.737C235.171 132.624 235.126 132.517 235.047 132.438C234.968 132.358 234.86 132.314 234.748 132.314C234.636 132.314 234.529 132.358 234.449 132.438C234.37 132.517 234.326 132.624 234.326 132.737C234.281 133.349 234.36 133.964 234.558 134.545C234.756 135.127 235.069 135.662 235.479 136.12C235.79 136.434 236.17 136.672 236.589 136.814C237.007 136.956 237.454 136.998 237.892 136.937C238.33 136.876 238.748 136.714 239.112 136.464C239.476 136.213 239.777 135.881 239.991 135.493C240.302 134.609 240.431 133.67 240.37 132.734C240.363 132.626 240.316 132.525 240.238 132.451C240.159 132.377 240.056 132.336 239.948 132.336C239.84 132.336 239.736 132.377 239.658 132.451C239.579 132.525 239.532 132.626 239.526 132.734V132.735ZM207.549 122.345C207.656 122.371 207.768 122.354 207.863 122.298C207.958 122.243 208.027 122.152 208.056 122.046C208.085 121.94 208.072 121.827 208.019 121.73C207.966 121.634 207.878 121.562 207.772 121.53C206.577 121.181 205.309 121.169 204.108 121.494C202.906 121.82 201.818 122.471 200.963 123.376C200.594 123.773 201.189 124.371 201.561 123.973C202.31 123.173 203.267 122.598 204.324 122.31C205.381 122.023 206.498 122.035 207.549 122.345ZM231.022 141.478C230.954 141.424 230.87 141.394 230.783 141.392C223.937 141.278 217.092 141.507 210.248 141.392C210.191 141.393 210.136 141.405 210.084 141.427C210.032 141.449 209.985 141.482 209.946 141.522C209.907 141.563 209.877 141.611 209.856 141.663C209.836 141.716 209.826 141.772 209.828 141.828C209.828 141.9 209.847 141.97 209.883 142.032C212.113 145.663 215.693 149.39 220.231 149.569C221.982 149.667 223.73 149.336 225.323 148.605C226.917 147.874 228.308 146.765 229.375 145.374C230.152 144.326 230.764 143.165 231.189 141.931C231.225 141.849 231.227 141.756 231.196 141.671C231.165 141.587 231.103 141.518 231.022 141.478ZM238.93 124.339C239.257 124.765 239.991 124.339 239.657 123.914C238.904 122.933 237.868 122.208 236.689 121.837C235.509 121.466 234.245 121.467 233.066 121.839C232.552 122.008 232.776 122.824 233.29 122.653C234.29 122.327 235.366 122.313 236.374 122.615C237.381 122.916 238.273 123.518 238.93 124.339ZM207.238 132.892C207.316 133.758 207.191 134.63 206.873 135.44C206.622 135.826 206.237 136.106 205.793 136.225C205.348 136.345 204.875 136.297 204.463 136.089C203.175 135.613 202.883 134.109 202.883 132.893C202.877 132.786 202.83 132.685 202.751 132.611C202.673 132.537 202.569 132.495 202.461 132.495C202.353 132.495 202.25 132.537 202.171 132.611C202.093 132.685 202.045 132.786 202.039 132.893C201.994 133.506 202.072 134.121 202.27 134.702C202.468 135.284 202.781 135.819 203.191 136.276C203.502 136.591 203.882 136.829 204.301 136.971C204.719 137.114 205.166 137.156 205.604 137.095C206.042 137.034 206.46 136.872 206.824 136.621C207.189 136.37 207.489 136.038 207.703 135.65C208.014 134.765 208.143 133.827 208.083 132.89C208.083 132.778 208.039 132.671 207.959 132.592C207.88 132.512 207.773 132.468 207.661 132.468C207.548 132.468 207.441 132.512 207.362 132.592C207.282 132.671 207.238 132.78 207.238 132.892ZM55.1674 114.434C52.2042 114.782 49.2317 115.024 46.25 115.16C45.7082 115.185 45.7053 116.032 46.25 116.004C51.6326 115.752 56.9942 115.166 62.3039 114.248C68.0855 113.233 73.8121 111.926 79.4618 110.333C82.9379 109.363 86.3942 108.323 89.8288 107.215L90.1412 107.117C90.6568 106.95 90.4317 106.135 89.916 106.302H89.9015C83.8791 108.242 77.8 110.018 71.6397 111.469C66.2098 112.77 60.7101 113.76 55.1674 114.434Z" fill="#1D1D1B"/>
<path d="M107.73 131.362L107.367 131.612C107.321 131.883 107.289 132.157 107.271 132.432V132.681C112.583 128.985 117.595 124.878 122.263 120.397C127.396 115.481 132.124 110.16 136.403 104.485C136.101 104.587 135.799 104.686 135.499 104.798C135.299 104.872 135.104 104.956 134.907 105.033C131.386 109.616 127.567 113.962 123.475 118.044C118.605 122.913 113.339 127.368 107.73 131.362Z" fill="#1D1D1B"/>
<path d="M107.367 131.612C107.925 129.148 109.072 126.856 110.708 124.931C111.034 124.495 110.3 124.074 109.982 124.505C108.249 126.542 107.054 128.98 106.507 131.598C106.477 131.814 106.468 132.034 106.454 132.246C106.432 132.584 106.429 132.924 106.445 133.263C106.622 135.394 107.291 137.456 108.4 139.285C109.488 141.305 111.277 142.859 113.43 143.653C115.544 144.355 117.795 144.54 119.995 144.19C122.513 143.846 124.952 143.065 127.202 141.882C127.224 141.867 127.245 141.85 127.263 141.831V141.218C127.201 141.156 127.12 141.116 127.032 141.104C126.945 141.092 126.856 141.11 126.78 141.153C123.093 143.249 118.776 143.952 114.614 143.134C112.617 142.651 110.865 141.456 109.688 139.772C108.187 137.704 107.346 135.231 107.276 132.677V132.427C107.292 132.154 107.322 131.882 107.367 131.612Z" fill="#1D1D1B"/>
<path d="M103.912 134.841C101.174 136.462 98.3656 137.957 95.4866 139.324C92.7016 140.644 89.853 141.826 86.9513 142.865C77.9485 146.102 68.4498 147.742 58.8831 147.711C55.3867 147.711 51.8962 147.48 48.4245 147.13C45.8433 146.873 43.2693 146.524 40.6823 146.33C40.1434 146.289 40.1404 145.444 40.6823 145.484C40.9481 145.505 41.2154 145.526 41.4812 145.551C44.1685 145.791 46.8456 146.144 49.5314 146.392C53.0762 146.733 56.6366 146.888 60.1977 146.854C64.599 146.8 68.9886 146.388 73.3232 145.622C78.51 144.691 83.5976 143.273 88.5186 141.388C94.3494 139.135 99.9549 136.337 105.261 133.033L105.342 132.983C104.22 131.19 103.122 129.381 102.048 127.555C101.757 127.066 101.476 126.573 101.188 126.082C99.426 123.065 97.6829 120.035 95.8512 117.059C93.8394 113.788 91.6721 110.589 89.8404 107.21C86.4054 108.319 82.9485 109.359 79.4719 110.329C73.819 111.924 68.089 113.232 62.3039 114.248C56.9942 115.167 51.6326 115.754 46.25 116.007C45.7053 116.033 45.7082 115.188 46.25 115.163C49.2297 115.027 52.2022 114.785 55.1674 114.437C60.7115 113.764 66.2127 112.774 71.644 111.474C77.8044 110.021 83.8834 108.246 89.9058 106.307C92.8605 105.074 95.7214 103.627 98.4658 101.978C98.7752 101.791 99.0745 101.592 99.3781 101.397C99.6221 101.242 99.869 101.091 100.104 100.932C99.335 98.5059 98.309 96.1686 97.0438 93.9599C95.171 90.7402 92.8808 87.7823 90.2326 85.1631C87.6209 82.6097 84.5739 80.5436 81.2354 79.0622C81.0583 79.2891 80.8692 79.5063 80.6688 79.713C79.6751 80.7463 78.4312 81.5054 77.0577 81.9165C70.8116 83.7817 63.9279 85.1994 57.4726 83.4519C54.551 82.5964 51.8305 81.164 49.4718 79.2394C48.2274 78.3424 47.1015 77.2916 46.1207 76.112C45.3182 75.0264 44.8076 73.7531 44.6376 72.4138C44.6246 72.3252 44.6013 72.2395 44.5926 72.1509C44.5708 71.9606 44.5737 71.7659 44.5665 71.5698C44.5098 71.5698 44.4517 71.5698 44.3936 71.5814C37.8926 72.273 31.6446 74.4805 26.1521 78.0265C20.609 81.6389 15.7602 86.2181 11.837 91.5457C9.81167 94.249 7.99321 97.1012 6.39705 100.078C5.20158 102.301 4.17896 104.59 3.18104 106.905C2.91231 107.531 2.65085 108.157 2.41553 108.794C1.22872 112.062 0.467608 115.47 0.15096 118.933C-0.0665436 121.27 -0.0324545 123.624 0.252641 125.954C0.569086 128.542 1.24931 131.072 2.27318 133.47C3.43937 136.151 5.04472 138.618 7.02311 140.771C9.40592 143.325 12.1784 145.486 15.2374 147.172C19.1955 149.342 23.4125 151.001 27.7877 152.111C33.5764 153.59 39.4893 154.531 45.4511 154.922C52.9693 155.607 60.5392 155.491 68.0329 154.575C74.0926 153.84 79.9679 152.008 85.3708 149.168C89.5863 146.883 93.2561 143.712 96.1272 139.872C96.2683 139.652 96.4205 139.44 96.5833 139.237C96.9391 138.952 97.3364 138.723 97.7613 138.558C98.6765 138.066 99.5834 137.559 100.482 137.036C102.379 135.932 104.237 134.766 106.057 133.538L106.073 133.524C105.355 133.972 104.635 134.411 103.912 134.841Z" fill="#4C63A3"/>
<path d="M147.453 84.8087C150.166 79.1968 152.156 73.263 153.375 67.1497C154.095 64.1655 154.315 61.0823 154.026 58.0261C153.523 54.6096 151.905 51.4549 149.425 49.052C149.135 48.7819 148.663 48.3809 148.282 48.7281C148.075 48.9742 147.951 49.2791 147.928 49.5997C147.856 50.5751 147.883 51.5553 148.01 52.5252L148.387 59.4583C148.416 60.0045 147.579 59.9972 147.541 59.4583C147.4 57.4178 146.963 55.4087 146.244 53.494C145.909 52.6057 145.513 51.7418 145.059 50.9084C144.702 50.182 144.238 49.5135 143.682 48.9257C143.194 48.3634 142.508 48.0111 141.767 47.9423C141.412 47.9847 141.086 48.163 140.859 48.44C140.632 48.717 140.52 49.0711 140.548 49.4283C140.566 50.2407 140.658 51.0498 140.823 51.8453C140.952 52.7893 141.012 53.7412 141.005 54.6939C140.985 56.6021 140.697 58.498 140.148 60.3255C140.118 60.4216 140.055 60.504 139.971 60.5582C139.886 60.6124 139.785 60.6347 139.685 60.6213C139.586 60.6079 139.494 60.5595 139.427 60.4849C139.36 60.4102 139.321 60.3141 139.318 60.2136C139.262 58.0913 139.007 55.9788 138.558 53.9036C138.32 52.8965 137.963 51.9212 137.494 50.9985C137.097 50.2344 136.477 48.9649 135.515 48.8458C134.128 48.6686 133.871 50.9142 133.861 51.8541C133.871 53.3816 133.771 54.9078 133.562 56.421C133.183 59.6618 131.953 62.7449 129.998 65.3572C127.994 67.7897 125.232 69.4801 122.154 70.158C121.106 70.3922 120.032 70.4855 118.959 70.4354C120.003 71.9547 120.952 73.5371 121.8 75.1738C122.076 75.6738 122.319 76.1916 122.526 76.7237C122.689 77.2074 122.154 77.7143 121.897 78.1007C121.259 79.0594 120.615 80.0133 119.965 80.9623C116.202 86.7594 111.768 92.0928 106.756 96.852C101.97 101.067 96.5227 104.464 90.6321 106.907C91.6213 108.712 92.7209 110.455 93.8132 112.2C95.9802 115.64 98.0911 119.114 100.145 122.622C102.08 125.944 104.012 129.268 106.05 132.529L106.462 132.238C106.477 132.022 106.486 131.803 106.516 131.59C107.063 128.973 108.258 126.534 109.991 124.498C110.312 124.062 111.045 124.487 110.717 124.923C109.08 126.848 107.934 129.141 107.376 131.605L107.739 131.355C113.345 127.362 118.608 122.91 123.475 118.044C127.57 113.963 131.392 109.616 134.915 105.033C130.742 106.778 126.768 108.967 123.062 111.561C122.608 111.863 122.191 111.125 122.637 110.835C125.101 109.164 127.652 107.625 130.279 106.224C132.073 105.288 133.931 104.481 135.841 103.81C136.276 103.24 136.712 102.681 137.132 102.105C141.099 96.6704 144.554 90.8804 147.453 84.8087ZM147.711 69.0947C148.111 68.4926 148.367 67.8069 148.461 67.0902C148.528 66.5571 149.373 66.5513 149.306 67.0902C149.207 67.957 148.908 68.7892 148.435 69.5218C148.144 69.9764 147.408 69.5523 147.708 69.0947H147.711ZM138.441 69.5174C138.779 68.836 138.914 68.0715 138.83 67.3153C138.778 66.7735 139.623 66.7793 139.675 67.3153C139.76 68.2219 139.584 69.1337 139.17 69.9445C138.927 70.4311 138.2 70.0026 138.436 69.5174H138.441ZM121.571 112.65C121.008 114.288 120.344 115.889 119.582 117.444C118.576 119.849 116.981 121.962 114.944 123.588C114.165 124.159 113.217 124.452 112.252 124.422C111.23 124.309 110.276 123.854 109.546 123.129C109.057 122.745 108.674 122.243 108.432 121.671C108.19 121.098 108.098 120.473 108.163 119.855C108.42 118.861 108.999 117.98 109.809 117.349C110.853 116.481 112.002 115.749 113.23 115.171C115.76 113.967 118.375 112.947 121.052 112.12C121.124 112.101 121.199 112.102 121.271 112.121C121.343 112.141 121.408 112.179 121.46 112.232C121.513 112.284 121.55 112.349 121.57 112.421C121.589 112.493 121.589 112.568 121.571 112.64V112.65Z" fill="#CB967C"/>
<path d="M151.664 50.2897C151.165 49.6362 150.616 49.0228 150.022 48.4551C149.348 47.8334 148.345 47.3874 147.62 48.2023C147.102 48.9873 146.908 49.9415 147.076 50.8664L147.235 53.7875C147.201 53.6945 147.177 53.5972 147.143 53.497C146.805 52.5616 146.404 51.6502 145.942 50.769C145.546 49.9385 145.036 49.167 144.427 48.4769C143.42 47.4179 141.593 46.4186 140.351 47.7143C139.109 49.01 139.946 51.2252 140.084 52.7678C140.209 54.2434 140.163 55.7285 139.949 57.1938C139.837 54.3985 138.982 51.6837 137.471 49.3295C137.264 48.9859 136.986 48.6905 136.656 48.463C136.326 48.2355 135.951 48.0813 135.556 48.0106C135.253 47.9848 134.948 48.0334 134.668 48.1521C134.388 48.2708 134.142 48.4561 133.949 48.6919C133.187 49.853 132.86 51.2463 133.026 52.6254C133.064 56.0366 132.319 59.411 130.847 62.4885C129.318 65.5019 126.683 67.8077 123.494 68.9234C122.288 69.3435 121.024 69.5724 119.748 69.6017C119.511 69.6017 119.274 69.5872 119.036 69.577C118.891 69.577 118.731 69.577 118.578 69.5611H118.565L118.397 69.5422H118.35C118.311 69.5422 118.272 69.5306 118.234 69.5233C118.109 69.5022 117.98 69.5314 117.877 69.6046C117.79 69.6565 117.728 69.7406 117.703 69.8383C117.679 69.9361 117.694 70.0396 117.746 70.1261L117.756 70.1435C119.236 72.2984 120.547 74.5644 121.678 76.9213C118.349 82.1591 114.636 87.143 110.57 91.832C107.482 95.2997 103.968 98.3628 100.112 100.948C99.872 101.107 99.625 101.258 99.3853 101.413C99.0818 101.606 98.7825 101.805 98.4731 101.994C95.7287 103.643 92.8677 105.09 89.9131 106.323H89.9291C90.4476 106.156 90.6684 106.971 90.1528 107.138L89.8405 107.235C91.6722 110.614 93.8394 113.812 95.8512 117.084C97.6829 120.06 99.426 123.089 101.189 126.107C101.48 126.598 101.76 127.089 102.048 127.58C103.122 129.404 104.22 131.214 105.342 133.008L105.71 132.785C106.173 132.494 106.596 133.228 106.135 133.511C106.244 133.438 106.348 133.358 106.455 133.284C106.439 132.945 106.442 132.606 106.464 132.267C106.319 132.362 106.189 132.459 106.051 132.558C104.018 129.298 102.081 125.975 100.147 122.653C98.0984 119.139 95.9761 115.68 93.8162 112.231C92.7224 110.487 91.6228 108.744 90.6336 106.937C96.5242 104.495 101.972 101.098 106.757 96.8826C111.769 92.1242 116.203 86.7918 119.967 80.9958C120.618 80.0477 121.262 79.0938 121.899 78.1342C122.156 77.7463 122.691 77.2408 122.528 76.7571C122.32 76.2251 122.078 75.7073 121.802 75.2072C120.958 73.56 120.013 71.9668 118.972 70.437C120.045 70.487 121.119 70.3937 122.168 70.1595C125.246 69.4816 128.007 67.7913 130.012 65.3587C131.967 62.7464 133.196 59.6634 133.575 56.4225C133.784 54.9093 133.884 53.3831 133.874 51.8556C133.884 50.9158 134.141 48.6701 135.528 48.8473C136.494 48.9708 137.11 50.2359 137.507 51C137.976 51.9227 138.333 52.898 138.572 53.9052C139.02 55.9803 139.275 58.0928 139.331 60.2152C139.334 60.3156 139.373 60.4117 139.44 60.4864C139.507 60.561 139.599 60.6094 139.699 60.6228C139.798 60.6363 139.899 60.6139 139.984 60.5597C140.069 60.5055 140.131 60.4231 140.161 60.327C140.71 58.4994 140.999 56.6036 141.019 54.6954C141.027 53.7427 140.965 52.7907 140.836 51.8469C140.671 51.0513 140.579 50.2422 140.562 49.4298C140.534 49.0727 140.645 48.7188 140.872 48.4419C141.099 48.165 141.425 47.9865 141.78 47.9438C142.522 48.0119 143.208 48.3643 143.695 48.9272C144.247 49.5174 144.707 50.1879 145.059 50.9158C145.513 51.7487 145.909 52.6122 146.244 53.4999C146.963 55.4151 147.4 57.4247 147.541 59.4656C147.579 60.0045 148.413 60.0118 148.387 59.4656L148.012 52.5325C147.884 51.5627 147.856 50.5825 147.928 49.607C147.951 49.2865 148.075 48.9816 148.282 48.7354C148.663 48.3883 149.132 48.7892 149.425 49.0594C151.906 51.4618 153.523 54.6167 154.026 58.0334C154.315 61.0897 154.096 64.1729 153.375 67.157C152.156 73.2703 150.166 79.2041 147.453 84.816C144.553 90.8843 141.097 96.6709 137.129 102.102C136.711 102.683 136.266 103.238 135.839 103.807C136.308 103.643 136.781 103.487 137.258 103.339C141.115 98.1459 144.512 92.626 147.409 86.8424C150.298 81.1491 152.473 75.1208 153.885 68.8943C154.036 68.2019 154.173 67.5061 154.296 66.807C154.434 66.0342 154.559 65.2585 154.665 64.4828C154.81 63.3673 154.964 62.2357 155.016 61.1056C155.035 60.7032 155.044 60.3009 155.034 59.8985C154.943 56.4219 153.764 53.0613 151.664 50.2897Z" fill="#1D1D1B"/>
<path d="M105.703 132.764L105.335 132.988L105.254 133.037C99.9477 136.342 94.3421 139.139 88.5113 141.392C83.5903 143.277 78.5027 144.694 73.3159 145.624C68.9813 146.39 64.5917 146.802 60.1904 146.856C56.6293 146.889 53.0689 146.735 49.5241 146.394C46.8383 146.145 44.1612 145.792 41.4739 145.553C41.2078 145.528 40.9415 145.506 40.675 145.486C40.1332 145.445 40.1361 146.291 40.675 146.331C43.262 146.526 45.836 146.874 48.4172 147.132C51.8962 147.477 55.3896 147.702 58.8758 147.713C68.4452 147.743 77.9463 146.102 86.9512 142.864C89.8564 141.828 92.7005 140.64 95.4866 139.323C98.3627 137.962 101.171 136.468 103.912 134.84C104.635 134.411 105.354 133.975 106.069 133.533L106.128 133.495C106.589 133.207 106.164 132.477 105.703 132.764ZM139.17 69.9444C139.584 69.1337 139.76 68.2219 139.675 67.3153C139.623 66.7793 138.778 66.7735 138.83 67.3153C138.914 68.0715 138.779 68.8359 138.441 69.5174C138.2 70.0025 138.927 70.4311 139.17 69.9444ZM148.44 69.5217C148.914 68.7891 149.213 67.957 149.312 67.0901C149.379 66.5512 148.533 66.557 148.466 67.0901C148.373 67.8068 148.117 68.4926 147.717 69.0947C147.413 69.5522 148.144 69.9764 148.44 69.5217ZM155.536 160.057C156.075 160.115 156.072 159.269 155.536 159.211C154.851 159.135 154.187 158.923 153.584 158.589C152.981 158.255 152.45 157.805 152.021 157.265L151.96 157.192C151.635 156.756 150.901 157.183 151.234 157.618C151.29 157.692 151.351 157.763 151.409 157.827C152.436 159.087 153.92 159.888 155.536 160.057ZM245.583 232.998C245.589 233.105 245.637 233.207 245.715 233.281C245.793 233.355 245.897 233.396 246.005 233.396C246.113 233.396 246.217 233.355 246.295 233.281C246.373 233.207 246.421 233.105 246.427 232.998L246.717 211.79L246.802 205.717C246.795 205.609 246.748 205.508 246.67 205.434C246.591 205.36 246.488 205.319 246.38 205.319C246.272 205.319 246.168 205.36 246.09 205.434C246.011 205.508 245.964 205.609 245.958 205.717L245.667 226.925L245.583 232.998ZM28.8568 32.4258C30.2833 26.4393 32.7829 20.761 36.2344 15.6659C37.2196 14.2133 38.2805 12.8135 39.4127 11.4723C39.7613 11.0584 39.1672 10.4555 38.8157 10.8753C33.5988 17.0388 29.9074 24.3446 28.0405 32.2006C27.917 32.7294 28.7304 32.9545 28.8568 32.4258ZM18.9488 37.8308C20.1275 27.8081 24.0059 18.2936 30.1699 10.303C31.8865 8.0789 33.7722 5.99066 35.8103 4.05693C36.2054 3.68071 35.6069 3.08516 35.2133 3.45847C31.5208 6.97266 28.3257 10.9747 25.7163 15.3536C23.1054 19.7311 21.094 24.4393 19.7361 29.3521C18.9733 32.1319 18.4275 34.9666 18.1034 37.8308C18.0424 38.3697 18.8892 38.3654 18.9488 37.8308Z" fill="#1D1D1B"/>
</svg>
